<?xml version="1.0" encoding="UTF-8" standalone="no"?>
<!-- Created with Inkscape (http://www.inkscape.org/) -->

<svg
   xmlns:dc="http://purl.org/dc/elements/1.1/"
   xmlns:cc="http://creativecommons.org/ns#"
   xmlns:rdf="http://www.w3.org/1999/02/22-rdf-syntax-ns#"
   xmlns:svg="http://www.w3.org/2000/svg"
   xmlns="http://www.w3.org/2000/svg"
   xmlns:sodipodi="http://sodipodi.sourceforge.net/DTD/sodipodi-0.dtd"
   xmlns:inkscape="http://www.inkscape.org/namespaces/inkscape"
   width="191.3932mm"
   height="122.0077mm"
   viewBox="0 0 191.3932 122.0077"
   version="1.1"
   id="svg8"
   inkscape:version="0.92.2 (5c3e80d, 2017-08-06)"
   sodipodi:docname="overview.svg">
  <defs
     id="defs2">
    <inkscape:path-effect
       only_selected="false"
       apply_with_weight="true"
       apply_no_weight="true"
       helper_size="0"
       steps="2"
       weight="33.333333"
       is_visible="true"
       id="path-effect6760"
       effect="bspline" />
    <inkscape:path-effect
       only_selected="false"
       apply_with_weight="true"
       apply_no_weight="true"
       helper_size="0"
       steps="2"
       weight="33.333333"
       is_visible="true"
       id="path-effect6756"
       effect="bspline" />
    <inkscape:path-effect
       effect="bspline"
       id="path-effect6751"
       is_visible="true"
       weight="33.333333"
       steps="2"
       helper_size="0"
       apply_no_weight="true"
       apply_with_weight="true"
       only_selected="false" />
    <inkscape:path-effect
       effect="bspline"
       id="path-effect6747"
       is_visible="true"
       weight="33.333333"
       steps="2"
       helper_size="0"
       apply_no_weight="true"
       apply_with_weight="true"
       only_selected="false" />
    <inkscape:path-effect
       only_selected="false"
       apply_with_weight="true"
       apply_no_weight="true"
       helper_size="0"
       steps="2"
       weight="33.333333"
       is_visible="true"
       id="path-effect6743"
       effect="bspline" />
    <inkscape:path-effect
       effect="bspline"
       id="path-effect6706"
       is_visible="true"
       weight="33.333333"
       steps="2"
       helper_size="0"
       apply_no_weight="true"
       apply_with_weight="true"
       only_selected="false" />
    <inkscape:path-effect
       effect="bspline"
       id="path-effect6694"
       is_visible="true"
       weight="33.333333"
       steps="2"
       helper_size="0"
       apply_no_weight="true"
       apply_with_weight="true"
       only_selected="false" />
    <inkscape:path-effect
       only_selected="false"
       apply_with_weight="true"
       apply_no_weight="true"
       helper_size="0"
       steps="2"
       weight="33.333333"
       is_visible="true"
       id="path-effect6115"
       effect="bspline" />
    <inkscape:path-effect
       only_selected="false"
       apply_with_weight="true"
       apply_no_weight="true"
       helper_size="0"
       steps="2"
       weight="33.333333"
       is_visible="true"
       id="path-effect6093"
       effect="bspline" />
    <inkscape:path-effect
       effect="bspline"
       id="path-effect6089"
       is_visible="true"
       weight="33.333333"
       steps="2"
       helper_size="0"
       apply_no_weight="true"
       apply_with_weight="true"
       only_selected="false" />
    <inkscape:path-effect
       effect="bspline"
       id="path-effect6085"
       is_visible="true"
       weight="33.333333"
       steps="2"
       helper_size="0"
       apply_no_weight="true"
       apply_with_weight="true"
       only_selected="false" />
    <inkscape:path-effect
       only_selected="false"
       apply_with_weight="true"
       apply_no_weight="true"
       helper_size="0"
       steps="2"
       weight="33.333333"
       is_visible="true"
       id="path-effect6081"
       effect="bspline" />
    <inkscape:path-effect
       effect="bspline"
       id="path-effect6077"
       is_visible="true"
       weight="33.333333"
       steps="2"
       helper_size="0"
       apply_no_weight="true"
       apply_with_weight="true"
       only_selected="false" />
    <inkscape:path-effect
       effect="bspline"
       id="path-effect6073"
       is_visible="true"
       weight="33.333333"
       steps="2"
       helper_size="0"
       apply_no_weight="true"
       apply_with_weight="true"
       only_selected="false" />
    <inkscape:path-effect
       only_selected="false"
       apply_with_weight="true"
       apply_no_weight="true"
       helper_size="0"
       steps="2"
       weight="33.333333"
       is_visible="true"
       id="path-effect6069"
       effect="bspline" />
    <inkscape:path-effect
       effect="bspline"
       id="path-effect5551"
       is_visible="true"
       weight="33.333333"
       steps="2"
       helper_size="0"
       apply_no_weight="true"
       apply_with_weight="true"
       only_selected="false" />
    <style
       id="style6"
       type="text/css">path { fill-rule: evenodd; }</style>
    <inkscape:path-effect
       only_selected="false"
       apply_with_weight="true"
       apply_no_weight="true"
       helper_size="0"
       steps="2"
       weight="33.333333"
       is_visible="true"
       id="path-effect6081-0"
       effect="bspline" />
    <inkscape:path-effect
       only_selected="false"
       apply_with_weight="true"
       apply_no_weight="true"
       helper_size="0"
       steps="2"
       weight="33.333333"
       is_visible="true"
       id="path-effect6081-0-8"
       effect="bspline" />
    <inkscape:path-effect
       only_selected="false"
       apply_with_weight="true"
       apply_no_weight="true"
       helper_size="0"
       steps="2"
       weight="33.333333"
       is_visible="true"
       id="path-effect6081-0-8-3"
       effect="bspline" />
  </defs>
  <sodipodi:namedview
     id="base"
     pagecolor="#ffffff"
     bordercolor="#666666"
     borderopacity="1.0"
     inkscape:pageopacity="0.0"
     inkscape:pageshadow="2"
     inkscape:zoom="0.41771987"
     inkscape:cx="383.91894"
     inkscape:cy="285.52049"
     inkscape:document-units="mm"
     inkscape:current-layer="layer1"
     showgrid="false"
     inkscape:snap-object-midpoints="true"
     showguides="false"
     inkscape:guide-bbox="true"
     inkscape:snap-global="true"
     inkscape:object-paths="true"
     inkscape:window-width="3000"
     inkscape:window-height="1955"
     inkscape:window-x="-13"
     inkscape:window-y="-13"
     inkscape:window-maximized="1"
     showborder="true"
     inkscape:snap-center="true"
     inkscape:snap-text-baseline="true"
     fit-margin-top="0"
     fit-margin-left="0"
     fit-margin-right="0"
     fit-margin-bottom="0">
    <inkscape:grid
       type="xygrid"
       id="grid817"
       units="in"
       spacingx="6.35"
       spacingy="0"
       originx="3.3630831"
       originy="-71.374559" />
    <sodipodi:guide
       position="139.88808,108.54214"
       orientation="0.79999999,0.60000001"
       id="guide1055"
       inkscape:locked="false" />
    <sodipodi:guide
       position="102.68063,12.015228"
       orientation="0.79999997,0.60000004"
       id="guide1166"
       inkscape:locked="false" />
    <sodipodi:guide
       position="68.94171,20.627439"
       orientation="0.7999999,0.60000013"
       id="guide1176"
       inkscape:locked="false" />
    <sodipodi:guide
       position="137.43706,105.6827"
       orientation="0,1"
       id="guide5457"
       inkscape:locked="false" />
    <sodipodi:guide
       position="157.72535,78.631647"
       orientation="0,1"
       id="guide5459"
       inkscape:locked="false" />
    <sodipodi:guide
       position="81.903396,3.3451917"
       orientation="0,1"
       id="guide6429"
       inkscape:locked="false" />
  </sodipodi:namedview>
  <metadata
     id="metadata5">
    <rdf:RDF>
      <cc:Work
         rdf:about="">
        <dc:format>image/svg+xml</dc:format>
        <dc:type
           rdf:resource="http://purl.org/dc/dcmitype/StillImage" />
        <dc:title></dc:title>
      </cc:Work>
    </rdf:RDF>
  </metadata>
  <g
     inkscape:groupmode="layer"
     id="layer5"
     inkscape:label="Layer 3"
     transform="translate(3.3630833,-103.61774)">
    <path
       sodipodi:nodetypes="ccccc"
       inkscape:connector-curvature="0"
       id="path6489"
       d="m 140.08689,191.973 25.17559,33.56744 H 76.504763 L 51.329173,191.973 Z"
       style="fill:#ffffff;fill-rule:evenodd;stroke:#000000;stroke-width:0.17;stroke-linecap:butt;stroke-linejoin:miter;stroke-miterlimit:4;stroke-dasharray:none;stroke-opacity:1" />
    <path
       id="path6345"
       d="m 80.62735,206.25371 a 10.559755,4.938117 34.285222 0 1 11.996775,8.8344 10.559755,4.938117 34.285222 0 1 -4.878699,5.10054 10.559755,4.938117 34.285222 0 1 -11.99679,-8.8344 10.559755,4.938117 34.285222 0 1 4.878714,-5.10054 z"
       style="fill:none;fill-opacity:0.78753542;fill-rule:evenodd;stroke:#000000;stroke-width:0.26499996;stroke-linecap:round;stroke-linejoin:round;stroke-miterlimit:4;stroke-dasharray:none;stroke-dashoffset:0;stroke-opacity:1"
       inkscape:connector-curvature="0" />
    <path
       id="path6343"
       d="m 80.62735,206.25371 a 10.559755,4.938117 34.285222 0 1 10.788121,6.96747 h -7.229084 z"
       style="fill:none;fill-opacity:0.78753542;fill-rule:evenodd;stroke:#000000;stroke-width:0.26499996;stroke-linecap:round;stroke-linejoin:round;stroke-miterlimit:4;stroke-dasharray:none;stroke-dashoffset:0;stroke-opacity:1"
       inkscape:connector-curvature="0" />
    <path
       id="path6347"
       d="m 80.62735,206.25371 a 10.559755,4.938117 34.285222 0 1 11.33301,7.71683 10.559755,4.938117 34.285222 0 1 -1.772772,6.45352 10.559755,4.938117 34.285222 0 1 -11.889936,-5.68949 10.559755,4.938117 34.285222 0 1 -1.962375,-8.24084 l 7.85111,6.72745 z"
       style="fill:none;fill-opacity:0.78753542;fill-rule:evenodd;stroke:#000000;stroke-width:0.26499996;stroke-linecap:round;stroke-linejoin:round;stroke-miterlimit:4;stroke-dasharray:none;stroke-dashoffset:0;stroke-opacity:1"
       inkscape:connector-curvature="0" />
    <path
       style="fill:none;fill-rule:evenodd;stroke:#000000;stroke-width:0.26458332px;stroke-linecap:butt;stroke-linejoin:miter;stroke-opacity:1"
       d="m 109.96839,204.05642 13.66787,18.22383 H 78.540318 L 64.872446,204.05642 Z"
       id="path5451-4"
       inkscape:connector-curvature="0"
       sodipodi:nodetypes="ccccc" />
    <text
       transform="skewX(37.87)"
       xml:space="preserve"
       style="font-style:normal;font-variant:normal;font-weight:normal;font-stretch:normal;font-size:4.8246541px;line-height:1.25;font-family:Cambira;-inkscape-font-specification:Cambira;letter-spacing:0px;word-spacing:0px;fill:#000000;fill-opacity:1;stroke:none;stroke-width:0.26458338"
       x="-66.219292"
       y="200.17894"
       id="text5495-8"><tspan
         sodipodi:role="line"
         id="tspan5493-1"
         x="-66.219292"
         y="200.17894"
         style="font-style:normal;font-variant:normal;font-weight:normal;font-stretch:normal;font-family:Calibri;-inkscape-font-specification:Calibri;fill:#000000;fill-opacity:1;stroke-width:0.26458338">197.244</tspan></text>
    <path
       style="fill:none;fill-rule:evenodd;stroke:#000000;stroke-width:0.26458332;stroke-linecap:butt;stroke-linejoin:miter;stroke-miterlimit:4;stroke-dasharray:none;stroke-dashoffset:0;stroke-opacity:1"
       d="m 103.31052,195.17928 4.76251,6.35 H 76.322991 l -4.762497,-6.35 z"
       id="path5453-4"
       inkscape:connector-curvature="0" />
    <text
       id="text6433"
       y="200.17894"
       x="-92.67762"
       style="font-style:normal;font-variant:normal;font-weight:normal;font-stretch:normal;font-size:4.8246541px;line-height:1.25;font-family:Cambira;-inkscape-font-specification:Cambira;letter-spacing:0px;word-spacing:0px;fill:#000000;fill-opacity:1;stroke:none;stroke-width:0.26458338"
       xml:space="preserve"
       transform="skewX(37.87)"><tspan
         style="font-style:normal;font-variant:normal;font-weight:normal;font-stretch:normal;font-family:Calibri;-inkscape-font-specification:Calibri;fill:#000000;fill-opacity:1;stroke-width:0.26458338"
         y="200.17894"
         x="-92.67762"
         id="tspan6431"
         sodipodi:role="line">Avg.:</tspan></text>
    <text
       id="text6433-3"
       y="211.92996"
       x="-64.339294"
       style="font-style:normal;font-variant:normal;font-weight:normal;font-stretch:normal;font-size:4.8246541px;line-height:1.25;font-family:Cambira;-inkscape-font-specification:Cambira;letter-spacing:0px;word-spacing:0px;fill:#000000;fill-opacity:1;stroke:none;stroke-width:0.26458341"
       xml:space="preserve"
       transform="skewX(37.87)"><tspan
         style="font-style:normal;font-variant:normal;font-weight:normal;font-stretch:normal;font-size:2.46944451px;font-family:Calibri;-inkscape-font-specification:Calibri;fill:#000000;fill-opacity:1;stroke-width:0.26458341"
         y="211.92996"
         x="-64.339294"
         id="tspan6431-0"
         sodipodi:role="line">Smallest</tspan></text>
    <text
       transform="skewX(37.87)"
       xml:space="preserve"
       style="font-style:normal;font-variant:normal;font-weight:normal;font-stretch:normal;font-size:4.8246541px;line-height:1.25;font-family:Cambira;-inkscape-font-specification:Cambira;letter-spacing:0px;word-spacing:0px;fill:#000000;fill-opacity:1;stroke:none;stroke-width:0.26458341"
       x="-64.438278"
       y="215.51128"
       id="text6459"><tspan
         sodipodi:role="line"
         id="tspan6457"
         x="-64.438278"
         y="215.51128"
         style="font-style:normal;font-variant:normal;font-weight:normal;font-stretch:normal;font-size:2.46944451px;font-family:Calibri;-inkscape-font-specification:Calibri;fill:#000000;fill-opacity:1;stroke-width:0.26458341">Medium</tspan></text>
    <text
       id="text6463"
       y="219.02715"
       x="-64.535446"
       style="font-style:normal;font-variant:normal;font-weight:normal;font-stretch:normal;font-size:4.8246541px;line-height:1.25;font-family:Cambira;-inkscape-font-specification:Cambira;letter-spacing:0px;word-spacing:0px;fill:#000000;fill-opacity:1;stroke:none;stroke-width:0.26458341"
       xml:space="preserve"
       transform="skewX(37.87)"><tspan
         style="font-style:normal;font-variant:normal;font-weight:normal;font-stretch:normal;font-size:2.46944451px;font-family:Calibri;-inkscape-font-specification:Calibri;fill:#000000;fill-opacity:1;stroke-width:0.26458341"
         y="219.02715"
         x="-64.535446"
         id="tspan6461"
         sodipodi:role="line">The Majority</tspan></text>
    <text
       id="text6463-2"
       y="208.15561"
       x="-69.430931"
       style="font-style:normal;font-variant:normal;font-weight:normal;font-stretch:normal;font-size:4.8246541px;line-height:1.25;font-family:Cambira;-inkscape-font-specification:Cambira;letter-spacing:0px;word-spacing:0px;fill:#000000;fill-opacity:1;stroke:none;stroke-width:0.26458341"
       xml:space="preserve"
       transform="skewX(37.87)"><tspan
         style="font-style:normal;font-variant:normal;font-weight:normal;font-stretch:normal;font-size:3.17499995px;font-family:Calibri;-inkscape-font-specification:Calibri;fill:#000000;fill-opacity:1;stroke-width:0.26458341"
         y="208.15561"
         x="-69.430931"
         id="tspan6461-6"
         sodipodi:role="line">Pie Pieces</tspan></text>
    <path
       sodipodi:nodetypes="ccccc"
       inkscape:connector-curvature="0"
       id="path6483"
       d="m 98.411854,210.71252 0.661492,0.88199 h -1.267577 l -0.661495,-0.88199 z"
       style="fill:none;fill-rule:evenodd;stroke:#000000;stroke-width:0.26458332px;stroke-linecap:butt;stroke-linejoin:miter;stroke-opacity:1" />
    <path
       style="fill:none;fill-rule:evenodd;stroke:#000000;stroke-width:0.26458332px;stroke-linecap:butt;stroke-linejoin:miter;stroke-opacity:1"
       d="m 101.18614,214.41157 0.66149,0.88199 h -1.26757 l -0.661497,-0.88199 z"
       id="path6485"
       inkscape:connector-curvature="0"
       sodipodi:nodetypes="ccccc" />
    <path
       sodipodi:nodetypes="ccccc"
       inkscape:connector-curvature="0"
       id="path6487"
       d="m 103.74547,217.82401 0.66149,0.88199 h -1.26757 l -0.6615,-0.88199 z"
       style="fill:none;fill-rule:evenodd;stroke:#000000;stroke-width:0.26458332px;stroke-linecap:butt;stroke-linejoin:miter;stroke-opacity:1" />
    <path
       style="fill:none;fill-rule:evenodd;stroke:#000000;stroke-width:0.26458332px;stroke-linecap:butt;stroke-linejoin:miter;stroke-opacity:1"
       d="m 139.03555,195.22921 20.28829,27.05104 h -31.67041 l -20.28829,-27.05104 z"
       id="path5451-8"
       inkscape:connector-curvature="0"
       sodipodi:nodetypes="ccccc" />
    <path
       inkscape:original-d="m 84.422767,198.56447 c 2.65e-4,-1.09376 2.65e-4,-2.18727 0,-3.28051 2.65e-4,-1.76051 2.65e-4,-3.52072 0,-5.28071 4.164677,-0.21806 8.329227,-0.43586 12.493111,-0.65338 2.65e-4,-2.55293 2.65e-4,-5.10618 0,-7.65841 2.65e-4,-6.9167 2.65e-4,-13.83483 0,-20.75182"
       inkscape:path-effect="#path-effect6081-0-8-3"
       inkscape:connector-curvature="0"
       id="path6079-2-1-9"
       d="m 84.422767,198.56447 c 0,-1.09376 0,-2.18727 0,-3.61415 0,-1.42687 0,-3.18708 2.082345,-4.17598 2.082345,-0.9889 6.246895,-1.2067 8.32883,-2.59205 2.081936,-1.38535 2.081936,-3.9386 2.081936,-8.67306 0,-4.73447 0,-11.6526 0,-18.56959"
       style="display:inline;fill:none;fill-rule:evenodd;stroke:#000000;stroke-width:0.26458332px;stroke-linecap:butt;stroke-linejoin:miter;stroke-opacity:1"
       sodipodi:nodetypes="cccccc" />
    <path
       sodipodi:nodetypes="cccccc"
       style="display:inline;fill:none;fill-rule:evenodd;stroke:#000000;stroke-width:0.26458332px;stroke-linecap:butt;stroke-linejoin:miter;stroke-opacity:1"
       d="m 111.97502,212.04817 c 0,-5.15067 0,-10.30113 0,-13.75649 0,-3.45536 0,-5.21557 -0.92231,-6.59966 -0.92231,-1.38408 -2.76709,-2.39235 -3.68944,-3.90836 -0.92234,-1.516 -0.92234,-3.53999 -0.92234,-5.98168 0,-2.44169 0,-5.30237 0,-8.16243"
       id="path6692"
       inkscape:connector-curvature="0"
       inkscape:path-effect="#path-effect6694"
       inkscape:original-d="m 111.97502,212.04817 c 2.6e-4,-5.15067 2.6e-4,-10.30113 0,-15.45134 2.6e-4,-1.76051 2.6e-4,-3.52072 0,-5.28071 -1.84445,-1.0085 -3.68923,-2.01677 -5.53409,-3.02467 2.6e-4,-2.02379 2.6e-4,-4.04778 0,-6.07091 2.6e-4,-2.86025 2.6e-4,-5.72093 0,-8.58099" />
    <g
       id="g6739"
       transform="matrix(0.56004073,0,0.43550906,0.55926534,-0.22864757,67.697343)"
       style="stroke-width:1.78682184">
      <rect
         y="238.88747"
         x="25.30526"
         height="33.255142"
         width="8.0618525"
         id="rect6696"
         style="fill:none;fill-opacity:0.78431373;stroke:#000000;stroke-width:0.46457365;stroke-linecap:round;stroke-linejoin:round;stroke-miterlimit:4;stroke-dasharray:none;stroke-dashoffset:0;stroke-opacity:1" />
      <rect
         style="fill:none;fill-opacity:0.78431373;stroke:#000000;stroke-width:0.46457365;stroke-linecap:round;stroke-linejoin:round;stroke-miterlimit:4;stroke-dasharray:none;stroke-dashoffset:0;stroke-opacity:1"
         id="rect6698"
         width="8.0618525"
         height="21.498274"
         x="33.367111"
         y="250.64433" />
      <rect
         y="258.81815"
         x="41.428963"
         height="13.324451"
         width="8.0618525"
         id="rect6700"
         style="fill:none;fill-opacity:0.78431373;stroke:#000000;stroke-width:0.46457365;stroke-linecap:round;stroke-linejoin:round;stroke-miterlimit:4;stroke-dasharray:none;stroke-dashoffset:0;stroke-opacity:1" />
      <rect
         style="fill:none;fill-opacity:0.78431373;stroke:#000000;stroke-width:0.46457365;stroke-linecap:round;stroke-linejoin:round;stroke-miterlimit:4;stroke-dasharray:none;stroke-dashoffset:0;stroke-opacity:1"
         id="rect6702"
         width="8.0618525"
         height="21.498274"
         x="49.490814"
         y="250.64433" />
      <path
         sodipodi:nodetypes="ccc"
         inkscape:connector-curvature="0"
         id="path6708"
         d="M 60.016014,272.14261 H 25.305259 v -38.47628"
         style="fill:none;fill-rule:evenodd;stroke:#000000;stroke-width:0.47276324px;stroke-linecap:butt;stroke-linejoin:miter;stroke-opacity:1" />
      <path
         inkscape:connector-curvature="0"
         id="path6710"
         d="M 25.305259,272.14261 H 23.513737"
         style="fill:none;fill-rule:evenodd;stroke:#000000;stroke-width:0.47276324px;stroke-linecap:butt;stroke-linejoin:miter;stroke-opacity:1" />
      <path
         style="fill:none;fill-rule:evenodd;stroke:#000000;stroke-width:0.47276324px;stroke-linecap:butt;stroke-linejoin:miter;stroke-opacity:1"
         d="M 25.305259,266.85094 H 23.513737"
         id="path6712"
         inkscape:connector-curvature="0" />
      <path
         inkscape:connector-curvature="0"
         id="path6714"
         d="M 25.305259,261.55927 H 23.513737"
         style="fill:none;fill-rule:evenodd;stroke:#000000;stroke-width:0.47276324px;stroke-linecap:butt;stroke-linejoin:miter;stroke-opacity:1" />
      <path
         style="fill:none;fill-rule:evenodd;stroke:#000000;stroke-width:0.47276324px;stroke-linecap:butt;stroke-linejoin:miter;stroke-opacity:1"
         d="M 25.305259,256.2676 H 23.513737"
         id="path6716"
         inkscape:connector-curvature="0" />
      <path
         inkscape:connector-curvature="0"
         id="path6718"
         d="M 25.305259,250.97593 H 23.513737"
         style="fill:none;fill-rule:evenodd;stroke:#000000;stroke-width:0.47276324px;stroke-linecap:butt;stroke-linejoin:miter;stroke-opacity:1" />
      <path
         style="fill:none;fill-rule:evenodd;stroke:#000000;stroke-width:0.47276324px;stroke-linecap:butt;stroke-linejoin:miter;stroke-opacity:1"
         d="M 25.305259,245.68426 H 23.513737"
         id="path6720"
         inkscape:connector-curvature="0" />
      <path
         inkscape:connector-curvature="0"
         id="path6722"
         d="M 25.305259,240.39259 H 23.513737"
         style="fill:none;fill-rule:evenodd;stroke:#000000;stroke-width:0.47276324px;stroke-linecap:butt;stroke-linejoin:miter;stroke-opacity:1" />
      <path
         style="fill:none;fill-rule:evenodd;stroke:#000000;stroke-width:0.47276324px;stroke-linecap:butt;stroke-linejoin:miter;stroke-opacity:1"
         d="M 25.305259,235.10092 H 23.513737"
         id="path6724"
         inkscape:connector-curvature="0" />
    </g>
    <path
       inkscape:original-d="m 136.36088,202.95605 c 2.6e-4,-2.50486 2.6e-4,-5.00948 0,-7.51384 2.6e-4,-1.76051 2.6e-4,-3.52072 0,-5.28071 3.00973,-1.0085 6.0193,-2.01677 9.0283,-3.02467 2.6e-4,-2.02379 2.6e-4,-4.04778 0,-6.07091 2.6e-4,-5.15304 2.6e-4,-10.30705 0,-15.46016"
       inkscape:path-effect="#path-effect6743"
       inkscape:connector-curvature="0"
       id="path6741"
       d="m 136.36088,202.95605 c 0,-2.50486 0,-5.00948 0,-7.14192 0,-2.13243 0,-3.89264 1.50489,-5.27681 1.50489,-1.38416 4.51446,-2.39243 6.01894,-3.90835 1.50447,-1.51593 1.50447,-3.53992 1.50447,-7.128 0,-3.58809 0,-8.7421 0,-13.89521"
       style="display:inline;fill:none;fill-rule:evenodd;stroke:#000000;stroke-width:0.26458332px;stroke-linecap:butt;stroke-linejoin:miter;stroke-opacity:1"
       sodipodi:nodetypes="cccccc" />
  </g>
  <g
     inkscape:label="Layer 1"
     inkscape:groupmode="layer"
     id="layer1"
     style="display:inline"
     transform="translate(3.3630833,-103.61774)">
    <path
       style="fill:#ffffff;fill-opacity:0.78431373;fill-rule:evenodd;stroke:#000000;stroke-width:0.17;stroke-linecap:butt;stroke-linejoin:miter;stroke-miterlimit:4;stroke-dasharray:none;stroke-opacity:1"
       d="m 140.08689,146.99379 25.17559,33.56744 H 76.504763 l -25.17559,-33.56744 z"
       id="path5545"
       inkscape:connector-curvature="0"
       sodipodi:nodetypes="ccccc" />
    <circle
       style="fill:#000000;fill-opacity:1;stroke:none;stroke-width:0.84666663;stroke-linecap:round;stroke-linejoin:round;stroke-miterlimit:4;stroke-dasharray:none;stroke-dashoffset:0;stroke-opacity:1"
       id="path822-4-7-8-5"
       cx="69.609238"
       cy="156.27342"
       r="1.3229163" />
    <circle
       style="fill:#000000;fill-opacity:1;stroke:none;stroke-width:0.84666663;stroke-linecap:round;stroke-linejoin:round;stroke-miterlimit:4;stroke-dasharray:none;stroke-dashoffset:0;stroke-opacity:1"
       id="path822-4-7-8-5-2-1"
       cx="124.22246"
       cy="165.60585"
       r="1.3229163" />
    <path
       style="fill:none;fill-rule:evenodd;stroke:#000000;stroke-width:0.69999999;stroke-linecap:butt;stroke-linejoin:miter;stroke-miterlimit:4;stroke-dasharray:none;stroke-opacity:1"
       d="m 69.609236,156.27334 27.30664,4.66621"
       id="path1140"
       inkscape:connector-curvature="0" />
    <path
       style="fill:none;fill-rule:evenodd;stroke:#000000;stroke-width:0.69999999;stroke-linecap:butt;stroke-linejoin:miter;stroke-miterlimit:4;stroke-dasharray:none;stroke-opacity:1"
       d="m 79.134236,168.97333 c 17.781638,-8.03378 17.781638,-8.03378 17.781638,-8.03378"
       id="path1142"
       inkscape:connector-curvature="0" />
    <path
       style="fill:none;fill-rule:evenodd;stroke:#000000;stroke-width:0.69999999;stroke-linecap:butt;stroke-linejoin:miter;stroke-miterlimit:4;stroke-dasharray:none;stroke-opacity:1"
       d="m 106.44093,173.63955 c 17.78157,-8.03379 17.78157,-8.03379 17.78157,-8.03379 v 0"
       id="path1144"
       inkscape:connector-curvature="0" />
    <path
       style="fill:none;fill-rule:evenodd;stroke:#000000;stroke-width:0.69999999;stroke-linecap:butt;stroke-linejoin:miter;stroke-miterlimit:4;stroke-dasharray:none;stroke-opacity:1"
       d="m 96.915874,160.93955 c 27.306626,4.66621 27.306626,4.66621 27.306626,4.66621"
       id="path1146"
       inkscape:connector-curvature="0" />
    <circle
       r="1.3229163"
       cy="165.60585"
       cx="145.3891"
       id="circle1150"
       style="fill:#000000;fill-opacity:1;stroke:none;stroke-width:0.84666663;stroke-linecap:round;stroke-linejoin:round;stroke-miterlimit:4;stroke-dasharray:none;stroke-dashoffset:0;stroke-opacity:1" />
    <path
       style="fill:none;fill-rule:evenodd;stroke:#000000;stroke-width:0.69999999;stroke-linecap:butt;stroke-linejoin:miter;stroke-miterlimit:4;stroke-dasharray:none;stroke-opacity:1"
       d="m 124.2225,165.60576 h 21.16668"
       id="path1152"
       inkscape:connector-curvature="0" />
    <path
       style="fill:none;fill-rule:evenodd;stroke:#ffffff;stroke-width:0.69999999;stroke-linecap:butt;stroke-linejoin:miter;stroke-miterlimit:4;stroke-dasharray:none;stroke-opacity:1"
       d="m 79.134236,168.97333 c 0,-1.99809 0,-3.99605 0,-6.20885 0,-2.2128 0,-4.64124 -0.04306,-7.20502 -0.04306,-2.56377 -0.129186,-5.26431 -0.172236,-7.62604 -0.04305,-2.36172 -0.04305,-4.38572 -0.04305,-9.91384 0,-5.52813 0,-14.56316 0,-23.59683"
       id="path6075"
       inkscape:connector-curvature="0"
       inkscape:path-effect="#path-effect6077"
       inkscape:original-d="m 79.134236,168.97333 c 2.65e-4,-1.99809 2.65e-4,-3.99605 0,-5.9935 2.65e-4,-2.42815 2.65e-4,-4.85659 0,-7.28409 -0.08584,-2.70006 -0.17197,-5.4006 -0.258344,-8.10026 2.65e-4,-2.02378 2.65e-4,-4.04778 0,-6.07091 2.65e-4,-9.03312 2.65e-4,-18.06815 0,-27.10182"
       sodipodi:nodetypes="cccccc" />
    <path
       inkscape:original-d="m 124.2225,165.60576 c 2.6e-4,-2.32848 2.6e-4,-4.6567 0,-6.98467 2.6e-4,-1.76051 2.6e-4,-3.52072 0,-5.28071 0.59455,-0.28035 1.18885,-0.56046 1.78283,-0.84027 2.6e-4,-2.55292 2.6e-4,-5.10618 0,-7.65841 2.6e-4,-8.15128 2.6e-4,-16.30426 0,-24.45599"
       inkscape:path-effect="#path-effect6081"
       inkscape:connector-curvature="0"
       id="path6079"
       d="m 124.2225,165.60576 c 0,-2.32848 0,-4.6567 0,-6.70094 0,-2.04424 0,-3.80445 0.2973,-4.82457 0.2973,-1.02011 0.8916,-1.30022 1.18857,-2.71664 0.29696,-1.41642 0.29696,-3.96968 0.29696,-9.32143 0,-5.35176 0,-13.50474 0,-21.65647"
       style="fill:none;fill-rule:evenodd;stroke:#000000;stroke-width:0.26458332px;stroke-linecap:butt;stroke-linejoin:miter;stroke-opacity:1"
       sodipodi:nodetypes="cccccc" />
    <path
       sodipodi:nodetypes="cccccc"
       style="fill:none;fill-rule:evenodd;stroke:#ffffff;stroke-width:0.69999999;stroke-linecap:butt;stroke-linejoin:miter;stroke-miterlimit:4;stroke-dasharray:none;stroke-opacity:1"
       d="m 96.915878,160.93964 c 0,-1.11615 0,-2.23204 0,-4.00401 0,-1.77196 0,-4.19998 -3.006555,-5.77772 -3.006555,-1.57775 -9.020231,-2.30553 -12.026831,-3.76948 -3.0066,-1.46394 -3.0066,-3.66436 -3.0066,-9.28067 0,-5.61631 0,-14.65134 0,-23.68501"
       id="path6083"
       inkscape:connector-curvature="0"
       inkscape:path-effect="#path-effect6085"
       inkscape:original-d="m 96.915878,160.93964 c 2.65e-4,-1.11615 2.65e-4,-2.23204 0,-3.34767 2.65e-4,-2.4283 2.65e-4,-4.85632 0,-7.28409 -6.013075,-0.72801 -12.026751,-1.45579 -18.039986,-2.18323 2.65e-4,-2.20016 2.65e-4,-4.40058 0,-6.60008 2.65e-4,-9.03312 2.65e-4,-18.06815 0,-27.10182" />
    <path
       sodipodi:nodetypes="cccccc"
       style="fill:none;fill-rule:evenodd;stroke:#000000;stroke-width:0.26458332px;stroke-linecap:butt;stroke-linejoin:miter;stroke-opacity:1"
       d="m 145.3891,165.60585 c 0,-2.32848 0,-4.6567 0,-6.70094 0,-2.04424 0,-3.80445 -3.23054,-4.8245 -3.23053,-1.02005 -9.69207,-1.30018 -12.92265,-2.7167 -3.23058,-1.41652 -3.23058,-3.96978 -3.23058,-9.32153 0,-5.35176 0,-13.50474 0,-21.65647"
       id="path6087"
       inkscape:connector-curvature="0"
       inkscape:path-effect="#path-effect6089"
       inkscape:original-d="m 145.3891,165.60585 c 2.6e-4,-2.32848 2.6e-4,-4.6567 0,-6.98467 2.6e-4,-1.76051 2.6e-4,-3.52072 0,-5.28071 -6.46106,-0.28039 -12.9226,-0.56052 -19.38377,-0.84036 2.6e-4,-2.55292 2.6e-4,-5.10618 0,-7.65841 2.6e-4,-8.15128 2.6e-4,-16.30426 0,-24.45599" />
    <path
       inkscape:original-d="m 96.915874,160.93955 c 2.65e-4,-2.32848 2.65e-4,-4.6567 0,-6.98467 2.65e-4,-1.76051 2.65e-4,-3.52072 0,-5.28071 9.696856,1.27506 19.393766,2.55043 29.089456,3.82594 2.6e-4,-2.55292 2.6e-4,-5.10618 0,-7.65841 2.6e-4,-8.15128 2.6e-4,-16.30426 0,-24.45599"
       inkscape:path-effect="#path-effect6093"
       inkscape:connector-curvature="0"
       id="path6091"
       d="m 96.915874,160.93955 c 0,-2.32848 0,-4.6567 0,-6.70094 0,-2.04424 0,-3.80445 4.848406,-4.04677 4.84841,-0.24231 14.54532,1.03306 19.39319,0.3942 4.84786,-0.63885 4.84786,-3.19211 4.84786,-8.54386 0,-5.35176 0,-13.50474 0,-21.65647"
       style="fill:none;fill-rule:evenodd;stroke:#000000;stroke-width:0.26458332px;stroke-linecap:butt;stroke-linejoin:miter;stroke-opacity:1"
       sodipodi:nodetypes="cccccc" />
    <path
       inkscape:original-d="m 96.915878,160.93964 c 2.65e-4,-1.11615 2.65e-4,-2.23204 0,-3.34767 2.65e-4,-2.4283 2.65e-4,-4.85632 0,-7.28409 -6.013075,-0.72801 -12.026751,-1.45579 -18.039986,-2.18323 2.65e-4,-2.20016 2.65e-4,-4.40058 0,-6.60008 2.65e-4,-9.03312 2.65e-4,-18.06815 0,-27.10182"
       inkscape:path-effect="#path-effect6760"
       inkscape:connector-curvature="0"
       id="path6758"
       d="m 96.915878,160.93964 c 0,-1.11615 0,-2.23204 0,-4.00401 0,-1.77196 0,-4.19998 -3.006555,-5.77772 -3.006555,-1.57775 -9.020231,-2.30553 -12.026831,-3.76948 -3.0066,-1.46394 -3.0066,-3.66436 -3.0066,-9.28067 0,-5.61631 0,-14.65134 0,-23.68501"
       style="fill:none;fill-rule:evenodd;stroke:#000000;stroke-width:0.26458332px;stroke-linecap:butt;stroke-linejoin:miter;stroke-opacity:1"
       sodipodi:nodetypes="cccccc" />
    <path
       inkscape:original-d="m 106.44093,173.63955 c 2.6e-4,-5.32708 2.6e-4,-10.65391 0,-15.98051 2.6e-4,-1.76051 2.6e-4,-3.52072 0,-5.28071 -4.15599,-1.06074 -8.312391,-2.12126 -12.468647,-3.18141 2.65e-4,-2.55293 2.65e-4,-5.10618 0,-7.65841 2.65e-4,-2.68388 2.65e-4,-5.36815 0,-8.05182"
       inkscape:path-effect="#path-effect6081-0"
       inkscape:connector-curvature="0"
       id="path6079-2"
       d="m 106.44093,173.63955 c 0,-5.32708 0,-10.65391 0,-14.19746 0,-3.54356 0,-5.30377 -2.07803,-6.71398 -2.07804,-1.41021 -6.23444,-2.47073 -8.312529,-4.27742 -2.078088,-1.8067 -2.078088,-4.35995 -2.078088,-6.978 0,-2.61806 0,-5.30233 0,-7.986"
       style="fill:none;fill-rule:evenodd;stroke:#ffffff;stroke-width:0.69999999;stroke-linecap:butt;stroke-linejoin:miter;stroke-miterlimit:4;stroke-dasharray:none;stroke-opacity:1"
       sodipodi:nodetypes="cccccc" />
    <path
       style="fill:none;fill-rule:evenodd;stroke:#ffffff;stroke-width:0.69999999;stroke-linecap:butt;stroke-linejoin:miter;stroke-miterlimit:4;stroke-dasharray:none;stroke-opacity:1"
       d="m 94.529568,152.08023 c -2.38631,-0.65542 -7.15951,0.46165 -9.545984,-0.0799 -2.386473,-0.54158 -2.386473,-2.742 -2.386473,-7.82921 v -21.03911"
       id="path6113"
       inkscape:connector-curvature="0"
       sodipodi:nodetypes="ccsc" />
    <path
       inkscape:connector-curvature="0"
       id="path6491"
       d="m 79.134236,168.97333 27.306694,4.66622"
       style="fill:none;fill-rule:evenodd;stroke:#000000;stroke-width:0.69999999;stroke-linecap:butt;stroke-linejoin:miter;stroke-miterlimit:4;stroke-dasharray:none;stroke-opacity:1"
       sodipodi:nodetypes="cc" />
    <circle
       style="fill:#000000;fill-opacity:1;stroke:none;stroke-width:0.84666663;stroke-linecap:round;stroke-linejoin:round;stroke-miterlimit:4;stroke-dasharray:none;stroke-dashoffset:0;stroke-opacity:1"
       id="path822-4-7-8-5-5-1"
       cx="106.4409"
       cy="173.63963"
       r="1.3229163" />
    <path
       sodipodi:nodetypes="cccccc"
       style="fill:none;fill-rule:evenodd;stroke:#000000;stroke-width:0.26458332px;stroke-linecap:butt;stroke-linejoin:miter;stroke-opacity:1"
       d="m 106.44093,173.63955 c 0,-5.32708 0,-10.65391 0,-14.19746 0,-3.54356 0,-5.30377 -2.07803,-6.71398 -2.07804,-1.41021 -6.23444,-2.47073 -8.312529,-4.27742 -2.078088,-1.8067 -2.078088,-4.35995 -2.078088,-6.978 0,-2.61806 0,-5.30233 0,-7.986"
       id="path6745"
       inkscape:connector-curvature="0"
       inkscape:path-effect="#path-effect6747"
       inkscape:original-d="m 106.44093,173.63955 c 2.6e-4,-5.32708 2.6e-4,-10.65391 0,-15.98051 2.6e-4,-1.76051 2.6e-4,-3.52072 0,-5.28071 -4.15599,-1.06074 -8.312391,-2.12126 -12.468647,-3.18141 2.65e-4,-2.55293 2.65e-4,-5.10618 0,-7.65841 2.65e-4,-2.68388 2.65e-4,-5.36815 0,-8.05182" />
    <circle
       style="fill:#000000;fill-opacity:1;stroke:none;stroke-width:0.84666663;stroke-linecap:round;stroke-linejoin:round;stroke-miterlimit:4;stroke-dasharray:none;stroke-dashoffset:0;stroke-opacity:1"
       id="path822-4-7-8-5-2"
       cx="96.915878"
       cy="160.93964"
       r="1.3229163" />
    <path
       sodipodi:nodetypes="cccccc"
       style="fill:none;fill-rule:evenodd;stroke:#000000;stroke-width:0.26458332px;stroke-linecap:butt;stroke-linejoin:miter;stroke-opacity:1"
       d="m 96.915878,160.93964 c 0,-1.11615 0,-2.23204 0,-4.00401 0,-1.77196 0,-4.19998 -2.38631,-4.8554 -2.38631,-0.65542 -7.15951,0.46165 -9.545984,-0.0799 -2.386473,-0.54158 -2.386473,-2.742 -2.386473,-7.82921 0,-5.08721 0,-13.06377 0,-21.03911"
       id="path6749"
       inkscape:connector-curvature="0"
       inkscape:path-effect="#path-effect6751"
       inkscape:original-d="m 96.915878,160.93964 c 2.65e-4,-1.11615 2.65e-4,-2.23204 0,-3.34767 2.65e-4,-2.4283 2.65e-4,-4.85632 0,-7.28409 -4.772665,1.11674 -9.545865,2.23381 -14.318767,3.35101 2.65e-4,-2.20016 2.65e-4,-4.40058 0,-6.60008 2.65e-4,-7.97492 2.65e-4,-15.95148 0,-23.92682" />
    <path
       sodipodi:nodetypes="cccccc"
       inkscape:original-d="m 79.134236,168.97333 c 2.65e-4,-1.99809 2.65e-4,-3.99605 0,-5.9935 2.65e-4,-2.42815 2.65e-4,-4.85659 0,-7.28409 -0.08584,-2.70006 -0.17197,-5.4006 -0.258344,-8.10026 2.65e-4,-2.55291 2.65e-4,-5.10618 0,-7.65841 2.65e-4,-9.03312 2.65e-4,-18.06815 0,-27.10182"
       inkscape:path-effect="#path-effect6756"
       inkscape:connector-curvature="0"
       id="path6754"
       d="m 79.134236,168.97333 c 0,-1.99809 0,-3.99605 0,-6.20885 0,-2.2128 0,-4.64124 -0.04306,-7.20502 -0.04306,-2.56377 -0.129186,-5.26431 -0.172236,-7.8906 -0.04305,-2.62629 -0.04305,-5.17956 -0.04305,-10.97224 0,-5.79267 0,-14.8277 0,-23.86137"
       style="fill:none;fill-rule:evenodd;stroke:#000000;stroke-width:0.26458332px;stroke-linecap:butt;stroke-linejoin:miter;stroke-opacity:1" />
    <circle
       style="fill:#000000;fill-opacity:1;stroke:none;stroke-width:0.84666663;stroke-linecap:round;stroke-linejoin:round;stroke-miterlimit:4;stroke-dasharray:none;stroke-dashoffset:0;stroke-opacity:1"
       id="path822-4-7-8-5-5"
       cx="79.134239"
       cy="168.97342"
       r="1.3229163" />
  </g>
  <g
     inkscape:groupmode="layer"
     id="layer3"
     inkscape:label="Layer 2"
     style="display:inline"
     transform="translate(3.3630833,-103.61774)">
    <path
       sodipodi:nodetypes="ccccc"
       inkscape:connector-curvature="0"
       id="path1156"
       d="m 140.08689,103.70274 25.17559,33.56744 H 76.504763 l -25.17559,-33.56744 z"
       style="fill:#ffffff;fill-opacity:0.78753542;fill-rule:evenodd;stroke:#000000;stroke-width:0.17;stroke-linecap:butt;stroke-linejoin:miter;stroke-miterlimit:4;stroke-dasharray:none;stroke-dashoffset:0;stroke-opacity:1" />
    <g
       id="g5469"
       transform="translate(9.2005362,-14.078976)">
      <g
         transform="translate(-9.6593343,-4.908842)"
         id="g4896">
        <path
           style="fill:none;fill-rule:evenodd;stroke:#000000;stroke-width:0.26458332px;stroke-linecap:butt;stroke-linejoin:miter;stroke-opacity:1"
           d="M 90.487499,125.55 95.25,131.9 H 63.499996 l -4.762497,-6.35 z"
           id="path1168"
           inkscape:connector-curvature="0" />
        <path
           style="fill:none;fill-rule:evenodd;stroke:#000000;stroke-width:0.26458332px;stroke-linecap:butt;stroke-linejoin:miter;stroke-opacity:1"
           d="m 84.137499,125.55 4.7625,6.35"
           id="path1170"
           inkscape:connector-curvature="0" />
        <path
           style="fill:none;fill-rule:evenodd;stroke:#000000;stroke-width:0.26458332px;stroke-linecap:butt;stroke-linejoin:miter;stroke-opacity:1"
           d="m 92.853411,128.725 h -6.35"
           id="path1174"
           inkscape:connector-curvature="0" />
        <path
           style="fill:#000000;fill-rule:evenodd;stroke:none;stroke-width:0.26458329px;stroke-linecap:butt;stroke-linejoin:miter;stroke-opacity:1"
           d="m 87.659988,127.75752 c 2.480029,0 2.480029,0 2.480029,0 l -2.170025,-1.24004 z"
           id="path1178"
           inkscape:connector-curvature="0" />
        <path
           inkscape:connector-curvature="0"
           id="path1180"
           d="m 91.716564,129.85953 c -2.480029,0 -2.480029,0 -2.480029,0 l 2.170025,1.24004 z"
           style="fill:#000000;fill-rule:evenodd;stroke:none;stroke-width:0.26458329px;stroke-linecap:butt;stroke-linejoin:miter;stroke-opacity:1" />
        <text
           xml:space="preserve"
           style="font-style:normal;font-variant:normal;font-weight:normal;font-stretch:normal;font-size:6.34196901px;line-height:1.25;font-family:Cambira;-inkscape-font-specification:Cambira;letter-spacing:0px;word-spacing:0px;fill-opacity:1;stroke:none;stroke-width:0.26458332"
           x="-26.582432"
           y="130.92729"
           id="text1184"
           transform="skewX(37.87)"><tspan
             sodipodi:role="line"
             id="tspan1182"
             x="-26.582432"
             y="130.92729"
             style="font-style:normal;font-variant:normal;font-weight:normal;font-stretch:normal;font-family:Calibri;-inkscape-font-specification:Calibri;fill-opacity:1;stroke-width:0.26458332">1.50</tspan></text>
      </g>
    </g>
    <g
       id="g5533"
       transform="translate(10.687566,-13.380558)">
      <path
         style="fill:none;fill-rule:evenodd;stroke:#000000;stroke-width:0.26458332px;stroke-linecap:butt;stroke-linejoin:miter;stroke-opacity:1"
         d="m 87.104037,130.29327 4.762501,6.35 H 60.116534 l -4.762497,-6.35 z"
         id="path4898"
         inkscape:connector-curvature="0" />
      <path
         style="fill:none;fill-rule:evenodd;stroke:#000000;stroke-width:0.26458332px;stroke-linecap:butt;stroke-linejoin:miter;stroke-opacity:1"
         d="m 79.166536,130.29327 4.7625,6.35"
         id="path4900"
         inkscape:connector-curvature="0" />
      <text
         transform="skewX(37.87)"
         xml:space="preserve"
         style="font-style:normal;font-variant:normal;font-weight:normal;font-stretch:normal;font-size:4.8246541px;line-height:1.25;font-family:Cambira;-inkscape-font-specification:Cambira;letter-spacing:0px;word-spacing:0px;fill-opacity:1;stroke:none;stroke-width:0.26458335"
         x="-40.283737"
         y="135.23024"
         id="text4910"><tspan
           sodipodi:role="line"
           id="tspan4908"
           x="-40.283737"
           y="135.23024"
           style="font-style:normal;font-variant:normal;font-weight:normal;font-stretch:normal;font-family:Calibri;-inkscape-font-specification:Calibri;fill-opacity:1;stroke-width:0.26458335">8/29/17</tspan></text>
      <path
         inkscape:connector-curvature="0"
         id="path4914"
         d="m 81.449086,131.92556 2.727109,3.63614"
         style="fill:none;fill-rule:evenodd;stroke:#000000;stroke-width:0.26458332px;stroke-linecap:butt;stroke-linejoin:miter;stroke-opacity:1"
         sodipodi:nodetypes="cc" />
      <path
         style="fill:none;fill-rule:evenodd;stroke:#000000;stroke-width:0.26458332px;stroke-linecap:butt;stroke-linejoin:miter;stroke-opacity:1"
         d="m 87.269925,131.92556 2.727109,3.63614"
         id="path4916"
         inkscape:connector-curvature="0"
         sodipodi:nodetypes="cc" />
      <path
         style="fill:none;fill-rule:evenodd;stroke:#000000;stroke-width:0.26458332px;stroke-linecap:butt;stroke-linejoin:miter;stroke-opacity:1"
         d="m 81.449086,131.92556 h 5.820839"
         id="path4918"
         inkscape:connector-curvature="0" />
      <path
         inkscape:connector-curvature="0"
         id="path4920"
         d="m 82.18609,132.9245 h 5.820839"
         style="fill:none;fill-rule:evenodd;stroke:#000000;stroke-width:0.26458332px;stroke-linecap:butt;stroke-linejoin:miter;stroke-opacity:1" />
      <path
         style="fill:none;fill-rule:evenodd;stroke:#000000;stroke-width:0.26458332px;stroke-linecap:butt;stroke-linejoin:miter;stroke-opacity:1"
         d="m 82.814227,133.79474 h 5.820839"
         id="path4922"
         inkscape:connector-curvature="0" />
      <path
         style="fill:none;fill-rule:evenodd;stroke:#000000;stroke-width:0.26458332px;stroke-linecap:butt;stroke-linejoin:miter;stroke-opacity:1"
         d="m 83.480095,134.63357 h 5.820839"
         id="path4924"
         inkscape:connector-curvature="0" />
      <path
         inkscape:connector-curvature="0"
         id="path4926"
         d="m 84.176195,135.5617 h 5.820839"
         style="fill:none;fill-rule:evenodd;stroke:#000000;stroke-width:0.26458332px;stroke-linecap:butt;stroke-linejoin:miter;stroke-opacity:1" />
      <path
         style="fill:none;fill-rule:evenodd;stroke:#000000;stroke-width:0.26458332px;stroke-linecap:butt;stroke-linejoin:miter;stroke-opacity:1"
         d="m 84.176195,135.5617 h 5.820839"
         id="path4928"
         inkscape:connector-curvature="0" />
      <path
         inkscape:connector-curvature="0"
         id="path4930"
         d="m 86.673841,132.9245 1.944024,2.59203"
         style="fill:none;fill-rule:evenodd;stroke:#000000;stroke-width:0.26458332px;stroke-linecap:butt;stroke-linejoin:miter;stroke-opacity:1"
         sodipodi:nodetypes="cc" />
      <path
         style="fill:none;fill-rule:evenodd;stroke:#000000;stroke-width:0.26458332px;stroke-linecap:butt;stroke-linejoin:miter;stroke-opacity:1"
         d="m 83.745003,132.9245 2.033096,2.71079"
         id="path4932"
         inkscape:connector-curvature="0"
         sodipodi:nodetypes="cc" />
      <path
         sodipodi:nodetypes="cc"
         inkscape:connector-curvature="0"
         id="path4934"
         d="m 85.203843,132.9245 2.033096,2.71079"
         style="fill:none;fill-rule:evenodd;stroke:#000000;stroke-width:0.26458332px;stroke-linecap:butt;stroke-linejoin:miter;stroke-opacity:1" />
      <text
         transform="skewX(37.87)"
         xml:space="preserve"
         style="font-style:normal;font-variant:normal;font-weight:normal;font-stretch:normal;font-size:0.84008783px;line-height:1.25;font-family:Cambira;-inkscape-font-specification:Cambira;letter-spacing:0px;word-spacing:0px;fill-opacity:1;stroke:#000000;stroke-width:0.05;stroke-miterlimit:4;stroke-dasharray:none;stroke-opacity:1"
         x="-19.425365"
         y="132.7003"
         id="text4910-6"><tspan
           sodipodi:role="line"
           id="tspan4908-4"
           x="-19.425365"
           y="132.7003"
           style="font-style:normal;font-variant:normal;font-weight:normal;font-stretch:normal;font-family:Calibri;-inkscape-font-specification:Calibri;fill-opacity:1;stroke:#000000;stroke-width:0.05;stroke-miterlimit:4;stroke-dasharray:none;stroke-opacity:1">AUGUST</tspan></text>
    </g>
    <path
       style="fill:#ffffff;fill-rule:evenodd;stroke:#000000;stroke-width:0.25681284;stroke-linejoin:round"
       d="m 139.85276,114.4496 c -0.0438,-0.0345 -3.6e-4,0.0261 0,0 z m -0.21714,-0.11456 c 0.0672,0.022 -0.0407,-0.0926 0,0 z m 0.27047,-0.33095 c -0.0507,-0.0694 -0.16831,-0.17232 0,0 z m -2.20288,-0.43702 c -0.53573,-0.003 -0.25988,0.36059 0.15679,0.7807 0.40108,-0.0687 0.67995,-0.2533 1.00026,-0.41157 0.5661,0.38288 0.55083,0.28192 0.7951,0.0999 0.12679,-0.58844 0.0828,0.16444 -0.62665,-0.36322 -0.53508,-0.36277 -0.72207,-0.80164 -0.85635,-0.31207 -0.15614,0.069 -0.30883,0.14104 -0.46915,0.20622 z"
       id="MA"
       inkscape:connector-curvature="0" />
    <path
       style="fill:#ffffff;fill-rule:evenodd;stroke:#000000;stroke-width:0.25681284;stroke-linejoin:round"
       d="m 119.69084,110.98739 c 0.92711,0.88784 1.71751,1.82424 2.61372,2.70273 0.0337,0.41657 0.88506,0.9722 1.24439,1.48642 0.4474,0.69267 0.88285,0.74807 1.37708,0.62275 0.78353,-0.0727 1.65606,-0.10699 2.36352,-0.22957 -0.38429,-0.44056 -1.12038,-0.70777 -1.63156,-0.87403 -0.42011,-0.33441 -1.12933,-0.95447 -0.99622,-1.25061 -0.38022,-0.48026 -0.47065,-0.88406 -0.34547,-1.24352 -0.21354,-0.34247 0.56864,-0.65526 0.18712,-0.67108 -0.63595,-0.27082 -0.71547,0.23994 -1.40608,-0.14254 -0.46529,-0.0829 -0.88336,-0.28572 -1.20893,-0.16702 -0.32642,0.27839 -1.39107,-0.96036 -1.17363,-0.45669 0.25929,0.34967 -0.80364,0.12274 -1.02394,0.22316 z"
       id="MN"
       inkscape:connector-curvature="0" />
    <path
       style="fill:#ffffff;fill-rule:evenodd;stroke:#000000;stroke-width:0.25681284;stroke-linejoin:round"
       d="m 115.58289,110.94921 c -2.40427,-0.12425 -4.9266,-0.4107 -7.55399,-0.87828 0.21247,0.47199 0.56004,0.95497 1.02768,1.37894 0.47326,0.40303 1.2549,0.76017 1.4323,1.0919 0.21795,0.68488 0.38725,0.57229 1.0312,0.99868 0.49653,0.37344 1.06914,1.04503 1.46355,0.83702 0.35142,-0.18737 1.07814,0.40055 0.60326,-0.21258 0.25324,-0.13562 1.07501,0.096 1.54801,0.10226 1.05552,0.0991 2.10069,0.18299 3.11896,0.22912 -0.87055,-1.18128 -1.71856,-2.36171 -2.58669,-3.54282 l -0.0843,-0.004 z"
       id="MT"
       inkscape:connector-curvature="0" />
    <path
       style="fill:#ffffff;fill-rule:evenodd;stroke:#000000;stroke-width:0.25681284;stroke-linejoin:round"
       d="m 119.60135,110.98739 c -1.27335,0.0373 -2.58087,0.0327 -3.93419,-0.0339 0.66541,0.90258 1.31258,1.80451 1.97355,2.70697 1.59487,0.0609 3.16105,0.0817 4.65819,0.017 -0.90572,-0.87594 -1.68258,-1.80567 -2.60807,-2.69 h -0.0862 -0.003 z"
       id="ND"
       inkscape:connector-curvature="0" />
    <path
       style="fill:#ffffff;fill-rule:evenodd;stroke:#000000;stroke-width:0.25681284;stroke-linejoin:round"
       d="m 108.02464,110.07093 c -0.96791,-0.37604 -0.41186,0.30857 -0.1382,0.80282 0.39191,0.60664 0.5615,1.27331 1.23421,1.85703 0.54224,0.44569 0.2436,0.86873 0.42036,1.27792 0.68661,0.57312 0.74006,1.19808 1.14736,1.79426 0.20519,0.52604 0.99571,0.2925 1.4534,0.48433 1.0546,0.18348 2.07674,0.31295 3.10251,0.44923 -0.49491,-0.7344 -0.94016,-1.51139 -1.46114,-2.21903 -0.36735,-0.32784 -0.74465,-0.0551 -1.16604,-0.10183 -0.55118,-0.33063 -1.09451,-1.0295 -1.55917,-1.16194 -0.54855,0.0456 -0.32531,-0.90023 -0.92328,-1.03669 -0.56926,-0.41834 -1.10557,-0.7394 -1.50989,-1.19991 -0.3042,-0.27748 -0.38196,-0.65731 -0.60012,-0.94619 z"
       id="ID"
       inkscape:connector-curvature="0" />
    <path
       style="fill:#ffffff;fill-rule:evenodd;stroke:#000000;stroke-width:0.25681284;stroke-linejoin:round"
       d="m 103.71308,111.12741 c -0.0121,-0.13442 -0.13079,-0.0554 0,0 z m 0.60674,-0.38611 c 0.0679,-0.0473 -0.13235,-0.0781 0,0 z m -0.14049,-0.0764 c 0.0456,-0.0868 -0.20516,-0.15821 0,0 z m 0.21517,-0.12304 c -0.12538,-0.25535 -0.0711,0.15571 0,0 z m -0.13036,-0.1782 c -0.0886,-0.15058 -0.0877,-0.10199 0,0 z m -0.31132,-0.41581 c 0.0101,-0.0572 -0.16056,-0.0778 0,0 z m -0.0819,-0.28003 c -0.10122,0.0538 0.0171,0.17588 0,0 z m -0.19582,-0.11456 c 0.0297,0.004 -0.0223,-0.0817 0,0 z m -0.0114,0.0127 c -0.10903,-0.2193 -0.11294,0.0381 0,0 z m -0.1139,-0.1188 c -0.15468,-0.0847 0.0724,0.0873 0,0 z m 0.18406,0.0721 c -0.0498,-0.12062 -0.066,-0.0219 0,0 z m -0.005,-0.0552 c -0.0128,-0.0195 -0.0697,-0.0146 0,0 z m -0.31566,-0.0933 c -0.0135,-0.0126 -0.10995,-0.0439 0,0 z m 0.14445,-0.017 c -0.13394,0.0158 -0.0932,0.078 0,0 z m -0.10037,-0.008 c -0.0481,-0.0656 -0.0636,0.003 0,0 z m 0.0498,-0.0509 c -0.0612,-0.0135 0.0435,0.0258 0,0 z m 0.8613,2.17661 c 0.46711,0.43792 0.9338,0.84974 1.47539,0.73458 0.79025,0.25727 1.34612,-0.0419 2.18863,0.20291 0.69076,0.19235 1.11272,0.25771 0.47978,-0.40922 -0.37959,-0.68241 -0.75918,-1.36482 -1.13876,-2.04722 -1.25993,-0.22946 -2.55773,-0.52957 -3.84478,-0.8104 0.40689,0.49976 0.44212,0.58906 0.74714,1.11164 0.52732,0.74913 -0.48435,0.25076 -0.0641,0.39883 0.15254,-0.2372 -0.20494,-0.68942 -0.25222,-0.46285 0.16828,-0.40298 -0.80688,-0.41731 -1.28454,-0.72201 -0.59594,-0.18689 0.53831,0.76282 0.60642,1.05425 0.24966,0.13436 0.5188,0.65685 0.29321,0.47604 0.0759,0.31068 0.53166,0.28989 0.79387,0.47345 z"
       id="WA"
       inkscape:connector-curvature="0" />
    <path
       style="fill:#ffffff;fill-rule:evenodd;stroke:#000000;stroke-width:0.25681284;stroke-linejoin:round"
       d="m 119.55175,121.30612 c -1.23906,-0.12695 -2.53693,-0.30481 -3.78475,-0.47095 0.53429,0.70526 0.26409,0.71883 0.1023,0.93016 0.42696,0.48625 0.52995,0.98379 1.25689,1.39303 -0.0436,0.21977 -0.0832,0.76047 0.39368,1.10529 0.0204,0.34907 0.27173,0.57852 1.06416,0.80737 1.02404,0.34768 2.14573,0.8975 3.10003,1.09087 0.3215,-0.0878 1.64209,0.45512 1.22299,-0.10123 -1.08096,-1.58084 -2.16118,-3.16166 -3.23459,-4.7418 l -0.0933,-0.01 -0.0274,-0.003 z"
       id="AZ"
       inkscape:connector-curvature="0" />
    <path
       style="fill:#ffffff;fill-rule:evenodd;stroke:#000000;stroke-width:0.25681284;stroke-linejoin:round"
       d="m 114.09162,123.66093 c 0.14721,0.15054 0.094,0.10397 0,0 z m -0.91084,-0.36489 c 0.0402,0.11427 0.19792,0.0498 0,0 z m 0.73583,-0.0127 c 0.15238,0.19443 0.32266,0.19474 0,0 z m -0.98523,-0.60249 c -0.14021,-0.0556 -0.008,0.024 0,0 z m -0.57224,-0.12729 c -0.14145,0.072 0.0425,0.1597 0,0 z m -0.28443,-0.0806 c -0.021,0.0546 0.16181,0.0611 0,0 z m 0.44115,0.0849 c 0.35428,0.1645 0.37522,0.0784 0,0 z m -4.36669,-3.738 -9.6e-4,0.004 z m 0.4725,0.0212 c -0.0345,-0.0408 0.004,0.0203 0,0 z m -0.0512,-3.22037 c -1.06366,-0.22854 -2.21395,-0.50817 -3.23647,-0.72977 0.44318,0.52331 0.48351,0.96967 0.54933,1.37133 0.52826,0.40134 0.81883,0.81364 1.1024,1.25078 0.42864,0.40669 0.91699,0.95837 1.47695,1.28466 0.2487,-0.37144 -0.025,-0.17552 0.47535,0.3438 -0.78645,-0.60831 0.0172,0.3872 0.48135,0.6123 0.12983,0.3848 0.77269,0.85267 1.30616,1.30218 0.64749,0.35062 0.73907,1.05162 1.4373,1.13022 0.57105,0.19589 1.21155,0.51965 1.70643,0.83412 0.5503,0.21447 1.27482,0.68027 1.53734,1.14134 0.64284,0.38502 1.15564,0.17093 1.74458,0.30763 1.02309,0.24808 0.007,-0.38635 0.0274,-0.7423 -0.0405,-0.48627 -0.0676,-0.62441 -0.78222,-1.19106 -2.12532,-1.42144 -4.27712,-2.87005 -6.40995,-4.30585 -0.4719,-0.86977 -0.94443,-1.73971 -1.41594,-2.60938 z"
       id="CA"
       inkscape:connector-curvature="0" />
    <path
       style="fill:#ffffff;fill-rule:evenodd;stroke:#000000;stroke-width:0.25681284;stroke-linejoin:round"
       d="m 122.8561,118.9301 c -0.3623,-0.61919 -0.7897,-1.01929 -1.37396,-0.85908 -1.36443,-0.0469 -2.7706,-0.15004 -4.20131,-0.29075 0.79606,1.17939 1.58729,2.35845 2.39162,3.53858 1.78069,0.15491 3.55302,0.29581 5.24479,0.32672 -0.69007,-0.90514 -1.3751,-1.81056 -2.06114,-2.71547 z"
       id="CO"
       inkscape:connector-curvature="0" />
    <path
       style="fill:#ffffff;fill-rule:evenodd;stroke:#000000;stroke-width:0.25681284;stroke-linejoin:round"
       d="m 115.67586,120.6909 c -0.87427,-1.41855 -1.76039,-2.8389 -2.6224,-4.25562 -1.47061,-0.23034 -2.96386,-0.49844 -4.48303,-0.81464 0.47158,0.86971 0.94403,1.7396 1.41595,2.60938 2.11948,1.41362 4.2921,2.91547 6.38239,4.26837 -0.31692,-0.49758 -0.77713,-1.06067 -0.19386,-0.9238 -0.1689,-0.29496 -0.30964,-0.58554 -0.49905,-0.88369 z"
       id="NV"
       inkscape:connector-curvature="0" />
    <path
       style="fill:#ffffff;fill-rule:evenodd;stroke:#000000;stroke-width:0.25681284;stroke-linejoin:round"
       d="m 124.45979,121.95529 c -0.30292,-0.60615 -0.90495,-0.25085 -1.35968,-0.37762 -1.12263,-0.058 -2.28085,-0.16646 -3.42763,-0.25881 1.14116,1.66263 2.2669,3.36086 3.43031,5.00238 0.92965,0.31589 0.11859,-0.57542 1.04623,-0.28091 0.9408,0.2289 0.26808,-0.25323 1.03592,-0.10944 0.76372,0.0415 1.52903,0.0852 2.28393,0.11456 -0.98495,-1.35233 -2.11652,-2.79485 -3.00908,-4.09016 z"
       id="NM"
       inkscape:connector-curvature="0" />
    <path
       style="fill:#ffffff;fill-rule:evenodd;stroke:#000000;stroke-width:0.25681284;stroke-linejoin:round"
       d="m 105.32073,114.87389 c 1.86566,0.45277 3.71301,0.86495 5.51128,1.18801 -0.37826,-0.61354 -0.59076,-1.23529 -1.04571,-1.83988 -0.63686,-0.48891 -0.0824,-0.77477 -0.45927,-1.27425 -0.33379,-0.54385 -1.05887,-0.43351 -1.56656,-0.59168 -0.71127,-0.15302 -1.24141,0.0887 -1.95811,-0.154 -0.53444,0.11443 -0.98327,-0.31389 -1.43362,-0.73101 -0.75299,-0.3042 -0.36464,0.21796 -0.23614,0.6158 0.25473,0.63283 0.55649,1.24607 0.55363,1.78983 0.15094,0.30183 0.293,0.6852 0.6345,0.99718 z m -1.15544,-3.48342 c -0.0709,-0.0977 -0.0407,0.005 0,0 z"
       id="OR"
       inkscape:connector-curvature="0" />
    <path
       style="fill:#ffffff;fill-rule:evenodd;stroke:#000000;stroke-width:0.25681284;stroke-linejoin:round"
       d="m 115.10745,116.71955 c -0.68369,-0.0932 -1.36335,-0.17983 -2.05399,-0.28427 0.89028,1.462 1.80318,2.92741 2.70692,4.3914 1.32342,0.19462 2.62621,0.35636 3.91208,0.49216 -0.80409,-1.1801 -1.59568,-2.3592 -2.39162,-3.53857 -0.52362,-0.16806 -1.28605,0.11289 -1.62993,-0.41663 -0.17425,-0.16992 -0.29109,-0.661 -0.54346,-0.64409 z"
       id="UT"
       inkscape:connector-curvature="0" />
    <path
       style="fill:#ffffff;fill-rule:evenodd;stroke:#000000;stroke-width:0.25681284;stroke-linejoin:round"
       d="m 119.4565,116.15949 c -0.4033,-0.55432 -0.80721,-1.10868 -1.21541,-1.66322 -1.52224,-0.0709 -3.09801,-0.21671 -4.7025,-0.40732 0.74854,1.17533 1.51386,2.3528 2.27848,3.53009 1.71697,0.20662 3.38867,0.34436 5.02158,0.42854 -0.46482,-0.62954 -0.91697,-1.25856 -1.38215,-1.88809 z"
       id="WY"
       inkscape:connector-curvature="0" />
    <path
       style="fill:#ffffff;fill-rule:evenodd;stroke:#000000;stroke-width:0.25681284;stroke-linejoin:round"
       d="m 134.1434,122.09955 c -0.51359,0.37462 -0.40865,-0.66536 -1.05793,-0.35311 -0.84866,0.093 -1.70792,0.17393 -2.58114,0.23854 0.87217,0.81834 1.52125,1.69007 2.22106,2.51604 0.52633,0.0203 0.7957,0.81073 1.27757,0.49642 0.50001,-0.0492 0.99825,-0.10058 1.49934,-0.1485 -0.2778,-0.36383 -0.72114,-0.92149 -0.71267,-1.21347 -0.26144,-0.37068 -0.16201,-0.66243 -0.39751,-0.99737 -0.007,-0.16894 -0.28822,-0.3629 -0.24872,-0.53855 z"
       id="AR"
       inkscape:connector-curvature="0" />
    <path
       style="fill:#ffffff;fill-rule:evenodd;stroke:#000000;stroke-width:0.25681284;stroke-linejoin:round"
       d="m 128.43207,116.40133 c -0.6324,-0.0551 -0.92987,-1.00583 -1.39861,-0.78205 -0.98302,0.0863 -1.95554,0.18492 -2.97314,0.23048 0.45082,0.5088 0.74357,0.89698 1.36418,1.34116 0.49754,0.34687 0.90381,0.95007 1.36908,1.20207 0.87868,-0.006 1.6833,-0.10133 2.46687,-0.21812 0.7097,0.49783 0.17171,-0.41042 -0.0976,-0.63615 0.0803,-0.18967 0.3704,-0.59949 -0.43706,-0.96806 -0.0794,-0.0826 -0.27204,-0.074 -0.29372,-0.16933 z"
       id="IA"
       inkscape:connector-curvature="0" />
    <path
       style="fill:#ffffff;fill-rule:evenodd;stroke:#000000;stroke-width:0.25681284;stroke-linejoin:round"
       d="m 130.04128,121.42917 c -0.54972,-0.59856 -1.00348,-1.31029 -1.61355,-1.83769 -0.60715,-0.22515 -0.5039,-0.70117 -1.12079,-0.66987 -1.43275,0.0686 -2.89612,0.10012 -4.41211,0.0637 0.67993,0.88684 1.34389,1.77348 2.02241,2.66029 1.79061,0.0316 3.53426,5e-4 5.21427,-0.10608 l -0.0702,-0.0858 -0.0201,-0.0246 z"
       id="KS"
       inkscape:connector-curvature="0" />
    <path
       style="fill:#ffffff;fill-rule:evenodd;stroke:#000000;stroke-width:0.25681284;stroke-linejoin:round"
       d="m 129.61146,118.35731 c -0.67716,-0.38982 -0.96686,0.0248 -1.49832,-0.0382 -0.42185,0.0733 -1,0.0291 -1.3882,0.10185 0.36795,0.4335 1.28316,0.54524 1.19072,0.88252 0.66292,0.27813 0.99998,0.77222 1.41071,1.27341 0.39371,0.46935 0.78777,0.93867 1.17798,1.40811 1.01036,-0.0728 1.99561,-0.17474 2.97781,-0.28003 0.1241,0.44513 0.80329,0.6831 0.49547,0.16548 -0.16881,-0.36757 -0.0906,-0.1335 0.0308,-0.32671 -0.24023,-0.47817 -0.8428,-0.6568 -1.27958,-1.05156 -0.74819,0.0291 -0.91524,-0.95979 -1.34582,-0.86468 -0.46893,-0.35623 -1.18543,-0.59263 -1.64505,-1.07501 -0.0547,-0.058 -0.0569,-0.14359 -0.12657,-0.19517 z"
       id="MO"
       inkscape:connector-curvature="0" />
    <path
       style="fill:#000000;fill-rule:evenodd;stroke:#000000;stroke-width:0.25681284;stroke-linejoin:round"
       d="m 124.75392,116.70682 c -0.67963,-0.41631 -1.02559,-0.11181 -1.61992,-0.37675 -1.16689,0.021 -2.37655,-0.013 -3.59248,-0.056 0.43412,0.59125 0.86104,1.1822 1.29713,1.77353 0.47579,0.0772 1.01508,-0.0816 1.45143,0.13673 0.35706,0.63493 0.78604,0.97641 1.35189,0.81369 1.30196,0.0147 2.56307,-0.0224 3.80324,-0.0849 -0.58479,-0.32085 -1.03601,-0.80335 -1.43988,-1.21937 -0.36856,-0.25409 -0.86404,-0.86421 -1.25141,-0.98694 z"
       id="NE"
       inkscape:connector-curvature="0" />
    <path
       style="fill:#ffffff;fill-rule:evenodd;stroke:#000000;stroke-width:0.25681284;stroke-linejoin:round"
       d="m 130.41409,121.87467 c -0.38404,-0.62955 -0.89485,-0.17938 -1.34762,-0.2786 -1.57305,0.0645 -3.18151,0.0879 -4.85188,0.0283 0.27036,0.64197 0.78967,0.42299 1.2341,0.46678 0.51492,0.13727 1.15123,-0.29644 1.54421,0.3602 0.47197,0.48543 0.78486,1.30408 1.53367,1.52757 0.36013,0.0481 0.96783,0.2443 1.4604,0.34393 0.46244,0.20459 0.73097,-0.0397 1.30799,0.18273 0.23493,-0.14511 0.58523,-0.38838 1.22068,-0.0385 0.37605,-0.025 -0.68744,-0.91488 -0.87372,-1.27608 -0.3421,-0.44501 -0.85207,-0.87521 -1.22783,-1.31631 z"
       id="OK"
       inkscape:connector-curvature="0" />
    <path
       style="fill:#ffffff;fill-rule:evenodd;stroke:#000000;stroke-width:0.25681284;stroke-linejoin:round"
       d="m 122.16063,113.68588 c -1.46011,0.0509 -2.97277,0.0361 -4.51991,-0.0255 0.64039,0.87275 1.2471,1.73044 1.90081,2.61362 1.29123,0.0775 2.51043,0.0155 3.78662,0.10117 0.45934,0.12179 1.0275,0.0892 1.49021,0.3104 -0.54256,-0.46598 -0.61456,-0.82774 -1.06758,-1.2902 -0.44475,-0.49586 -0.98815,-1.0649 -1.41094,-1.49866 -0.0257,-0.10605 0.0117,-0.29132 -0.17921,-0.21087 z"
       id="SD"
       inkscape:connector-curvature="0" />
    <path
       style="fill:#ffffff;fill-rule:evenodd;stroke:#000000;stroke-width:0.25681284;stroke-linejoin:round"
       d="m 138.8913,128.27296 c -0.0758,-0.023 -0.0618,0.11872 0,0 z m 0.17898,0 c -0.0663,-0.0562 -0.0401,0.0451 0,0 z m 0.0758,-0.0339 c -0.0601,-0.031 -0.0229,0.0819 0,0 z m -0.0743,-0.0297 c -0.0337,-0.039 -0.014,0.0173 0,0 z m 0.16564,-0.22487 c -0.0359,0.0116 0.0478,0.0164 0,0 z m 0.40148,-0.25033 c 0.003,-0.10758 -0.006,0.033 0,0 z m -7.6e-4,-0.11032 c -0.0185,-0.006 0.0113,0.0264 0,0 z m -1.89935,0.37338 c 0.025,-0.25312 -0.49782,-0.0397 0,0 z m 1.48078,-0.36914 c -0.048,-0.052 -0.0322,0.0158 0,0 z m -0.0127,-0.0764 c -0.14604,-0.0832 0.0542,0.10637 0,0 z m 0.29322,-0.0721 c -0.0232,-0.0297 -0.003,-0.004 0,0 z m 0.0422,-0.0552 c -0.0236,-0.0162 0.0148,0.0151 0,0 z m -0.0407,-0.008 c -0.03,-0.0213 0.006,0.0339 0,0 z m -0.30822,-0.0127 c 0.085,0.0347 -0.0273,-0.0938 0,0 z m 0.005,-0.0212 c 0.0574,-5e-4 -0.0557,-0.0627 0,0 z m -0.27151,-0.15699 c -0.0193,0.009 0.0166,0.0139 0,0 z m -3.42444,-2.37603 c -0.66773,0.0636 -1.32781,0.13619 -2.00321,0.19093 0.45343,0.60086 1.03648,1.1132 1.69465,1.63167 0.39203,0.39802 0.6888,0.87941 0.83594,1.23229 0.28998,-0.22601 1.1701,0.24981 1.37505,-0.0127 -0.28582,-0.37888 0.50821,0.0362 0.93813,0.18669 -0.0342,0.25775 0.82979,0.0431 0.79783,-0.003 -0.60513,-0.62725 0.87884,0.28081 0.76701,0.0178 -0.35125,-0.30028 -0.85081,-0.26964 -0.80435,-0.69076 -0.31607,-0.0121 -0.28673,-0.12098 -0.86886,-0.0807 -0.2238,-0.49134 1.18299,0.19716 -0.004,-0.55843 -0.34813,-0.54665 -0.90686,-0.0411 -1.35965,-0.12197 -0.41286,0.007 -0.61108,-0.8712 -0.655,-1.16876 -0.25469,-0.17366 -0.4569,-0.39927 -0.71316,-0.62266 z"
       id="LA"
       inkscape:connector-curvature="0" />
    <path
       style="fill:#ffffff;fill-rule:evenodd;stroke:#000000;stroke-width:0.25681284;stroke-linejoin:round"
       d="m 136.14655,131.23026 c -0.76315,-0.75845 -0.97187,-0.8683 -0.0582,-0.0526 z m -1.09853,-1.34924 c 0.0693,0.34959 0.19613,0.51132 0,0 z m -0.0404,-0.19941 c 0.0694,-0.21145 -0.1273,-0.24004 0,0 z m 0.14422,-0.43278 c -0.17119,0.0832 -0.30043,0.3655 0,0 z m -0.004,-0.0594 c 0.0828,-0.0638 -0.0225,-0.1143 0,0 z m -10.60336,-7.11959 c 0.86377,1.2567 1.96787,2.66184 2.92402,3.9756 -0.94361,-0.0399 -1.89316,-0.0877 -2.85489,-0.15275 0.70357,0.51496 1.51574,0.90052 2.25042,1.31423 0.62179,0.43377 1.04716,1.04806 1.762,1.20883 0.90091,0.52021 0.80673,0.0471 0.70453,-0.3739 0.26229,-0.23614 0.99979,0.14884 1.5077,0.24384 0.33269,0.29003 1.01192,0.8392 1.53395,1.17545 0.65213,0.3178 1.0344,0.79866 1.58291,1.09026 0.39796,0.37021 1.19418,0.765 1.63616,0.73403 0.94185,0.32779 0.48876,-0.058 -0.10339,-0.57706 -0.58044,-0.6409 -0.74489,-0.44711 -0.47845,-0.72489 -0.5192,-0.31325 -0.0546,-0.54307 -0.0712,-0.62009 -0.0675,-0.12967 0.0768,-0.28648 -0.0411,-0.34792 0.63022,0.0795 0.95767,-0.42607 0.34879,-1.00133 0.4098,-0.0291 0.40303,0.46416 0.71363,-0.0467 0.11003,-0.21746 -0.36424,-0.80788 -0.65372,-1.19346 -0.63337,-0.54288 -1.27227,-1.02161 -1.72353,-1.63232 -0.32495,-0.53923 -0.65888,-0.61318 -1.17572,-0.72111 -0.69892,-0.38047 -0.82222,0.12235 -1.26396,0.0328 -0.47289,-0.12677 -0.77006,0.0735 -1.26251,-0.16717 -0.46213,-0.045 -1.09219,-0.33003 -1.44312,-0.31132 -0.85019,-0.47441 -1.13704,-1.25836 -1.71506,-1.86688 -0.72029,-0.005 -1.44687,-0.0192 -2.17752,-0.0382 z"
       id="TX"
       inkscape:connector-curvature="0" />
    <path
       style="fill:#ffffff;fill-rule:evenodd;stroke:#000000;stroke-width:0.25681284;stroke-linejoin:round"
       d="m 138.67402,114.02531 c -0.0731,0.28463 -1.15239,0.0786 -0.48216,0.6269 0.58515,0.66932 0.6441,0.67494 0.73487,0.27684 0.43775,-0.10889 0.50148,-0.40199 -0.24184,-0.89526 l -0.0109,-0.008 z"
       id="CT"
       inkscape:connector-curvature="0" />
    <path
       style="fill:#ffffff;fill-rule:evenodd;stroke:#000000;stroke-width:0.25681284;stroke-linejoin:round"
       d="m 135.80361,111.08074 c -0.15842,0.23971 0.74448,0.81371 0.65062,1.12348 0.39079,0.4199 0.80537,1.12319 1.31093,1.33691 0.27343,-0.0785 0.76649,-0.28546 0.33554,-0.66141 -0.84648,-0.49745 -1.52963,-1.20599 -2.29709,-1.79898 z"
       id="NH"
       inkscape:connector-curvature="0" />
    <path
       style="fill:#ffffff;fill-rule:evenodd;stroke:#000000;stroke-width:0.25681284;stroke-linejoin:round"
       d="m 139.38928,114.40717 c -0.10492,-0.18837 -0.0874,-0.0383 0,0 z m 0.0323,-0.0679 c -0.22217,-0.23265 -0.0899,0.0534 0,0 z m -0.12809,-0.13153 c 0.44268,0.40501 -0.0159,-0.13929 0,0 z m -0.60861,-0.17396 c 0.40806,0.50413 1.07631,0.81753 0.46615,0.14426 0.20766,-0.0384 -0.51683,-0.37413 -0.46615,-0.14426 z"
       id="RI"
       inkscape:connector-curvature="0" />
    <path
       style="fill:#ffffff;fill-rule:evenodd;stroke:#000000;stroke-width:0.25681284;stroke-linejoin:round"
       d="m 137.70321,113.56707 c -0.57503,-0.48374 -1.00634,-1.03936 -1.33376,-1.51534 -0.0667,-0.64742 -0.81603,-0.67796 -0.99708,-0.34855 -0.54533,0.0664 0.6708,0.83461 1.01048,1.19414 0.49018,0.3111 0.97801,1.0961 1.24076,0.70555 l 0.0597,-0.0231 z"
       id="VT"
       inkscape:connector-curvature="0" />
    <path
       style="fill:#ffffff;fill-rule:evenodd;stroke:#000000;stroke-width:0.25681284;stroke-linejoin:round"
       d="m 135.93856,122.83357 c 0.66374,0.61861 1.13408,1.38981 1.71738,2.06919 0.48697,0.66946 1.17922,1.37913 1.7993,1.99975 0.31339,-0.11848 -0.1857,-0.36549 0.51698,-0.0391 0.10894,-0.27021 -0.84463,-0.79837 0.13558,-0.68597 0.18205,-0.16569 1.33617,0.0182 0.91912,-0.36434 -0.60477,-0.47003 -0.61802,-0.93098 -1.26384,-1.33426 -0.77525,-0.60965 -1.44494,-1.28927 -2.18055,-1.92533 -0.52223,0.11638 -1.12983,0.17759 -1.64397,0.28004 z"
       id="AL"
       inkscape:connector-curvature="0" />
    <path
       style="fill:#ffffff;fill-rule:evenodd;stroke:#000000;stroke-width:0.25681284;stroke-linejoin:round"
       d="m 148.41438,131.15814 c -0.0261,-0.01 0.009,0.0137 0,0 z m -0.0417,-0.004 c 2.4e-4,0.008 0.0176,0.004 0,0 z m 0.005,-0.004 -0.003,-0.004 z m -0.52995,0.0636 0.003,0.004 z m -0.005,0.004 -0.003,-0.004 z m -0.0384,0 c -0.0124,-0.006 0.007,0.0141 0,0 z m 1.0019,-0.2673 c -0.0175,-0.005 0.0259,0.0227 0,0 z m 0.0919,-0.0297 c -0.0133,-0.027 -0.007,0.0205 0,0 z m -0.0492,-0.008 c -0.0368,-0.0464 -0.0463,0.007 0,0 z m 0.0137,0.0339 c -0.20673,-0.16421 -0.0585,-0.002 0,0 z m 0.20972,-0.25033 c 0.009,0.037 0.0305,0.004 0,0 z m 0.0266,-0.0424 c 0.0164,-0.0431 -0.0311,-0.011 0,0 z m -0.0203,-0.0424 c -0.0124,-0.006 0.007,0.0141 0,0 z m -0.0866,-0.0127 -0.008,-0.004 z m -0.0113,-0.0636 c -0.0197,-0.0165 0.006,0.0165 0,0 z m -0.11837,-0.004 -0.008,-0.004 z m 0.0688,-0.0976 c -0.0267,0.002 0.0358,0.0185 0,0 z m 0.017,0 c -0.0387,-0.0309 0.007,0.0186 0,0 z m -0.0365,-0.008 c -0.0197,-0.0165 0.006,0.0165 0,0 z m 0.13453,-0.0297 c -0.0142,-0.0216 0.0126,0.0436 0,0 z m -0.16576,0.017 c -0.0292,-0.008 0.0157,0.0132 0,0 z m 0.0498,-0.0509 c -0.0195,-0.012 -0.0173,0.0222 0,0 z m 0.0176,-0.0212 h -0.004 z m -0.34474,0.017 c -0.009,-0.0227 -0.009,0.005 0,0 z m 0.0284,-0.0127 c -0.0524,-0.0161 0.0778,0.0681 0,0 z m -0.099,0.004 c -0.003,-0.0485 -0.0852,-0.0178 0,0 z m -0.0927,-0.0424 c 0.0749,0.0657 0.0236,-0.0129 0,0 z m 0.64627,0.0255 c -0.18509,0.0147 0.0593,0.078 0,0 z m -0.62637,-0.0382 c -0.0632,-0.0344 0.004,0.0478 0,0 z m 0.50795,-0.21214 c -0.0205,-0.0416 -0.11544,-0.16202 0,0 z m -0.18093,-0.2376 c -0.071,-0.10551 -0.0631,0.001 0,0 z m -0.90171,0.10607 c -0.0224,0.0201 0.0717,0.0269 0,0 z m -0.11073,-0.0382 c -0.1022,-0.005 0.0395,0.0443 0,0 z m -0.0786,0.008 c -0.007,-0.0266 -0.0208,-0.006 0,0 z m -0.0928,-0.004 c -0.0777,0.008 0.11838,0.0721 0,0 z m 0.12263,0.004 c -0.0149,-0.0282 -0.0843,-0.018 0,0 z m -0.88234,-0.4158 c -0.0838,0.0121 0.14962,0.0611 0,0 z m -0.2081,-0.13577 c -0.14774,-0.13034 -0.0461,-0.002 0,0 z m 0.19824,0.0848 c -0.21872,-0.19952 -0.34399,-0.21114 0,0 z m -0.30274,-0.16971 c -0.0231,-0.0209 -0.1484,-0.12614 0,0 z m -0.72078,-0.47096 c -0.22913,-0.122 -0.0676,-0.0129 0,0 z m 1.69606,-0.28428 c -0.90916,-0.6652 -0.89311,-0.62691 0,0 z m -2.7969,-0.82736 c -0.0503,-0.0221 0.0187,0.0177 0,0 z m -0.0487,-0.0297 c -0.0122,0.002 0.0241,0.0185 0,0 z m -0.0629,-0.0424 c -0.004,-0.0117 -0.008,0.005 0,0 z m 0.004,-0.017 c 0.0406,0.0326 0.007,-0.0174 0,0 z m 0.0123,-0.017 c -0.0387,0.004 0.002,0.007 0,0 z m -0.0331,-0.004 c -0.053,-0.0297 -0.007,-0.004 0,0 z m -0.0662,-0.0467 c -0.0314,-0.005 0.0276,0.0121 0,0 z m -0.01,-0.0509 c -0.0243,-0.016 -0.0237,0.0261 0,0 z m 0.0237,0.008 c -0.0894,-0.0391 -0.0106,-0.0173 0,0 z m -0.30414,-0.18244 c -0.0253,-0.0187 -0.004,0.0116 0,0 z m -0.18324,0 c -0.0598,-0.0558 -9.9e-4,0.024 0,0 z m -1.6603,-0.14002 c 0.11977,-0.2148 0.0102,-0.0448 0,0 z m 0.0969,-0.20366 c 0.0246,-0.0459 -0.0847,0.0437 0,0 z m -1.84092,-0.28427 c -0.42126,0.16303 -0.37714,0.18897 0,0 z m 0.59264,-0.72129 c -0.5698,0.10856 -1.14472,0.21173 -1.71648,0.31821 0.70288,0.65773 0.62296,0.57755 1.08121,0.38657 0.26375,-0.15489 0.82917,0.15217 1.37796,0.37977 0.62048,0.33842 0.15138,-0.76601 0.93695,-0.298 0.6306,0.41168 1.19775,0.37797 1.68901,0.81365 0.37827,0.45867 0.8636,1.15981 0.82107,0.70794 0.0317,0.39416 1.28553,1.15988 0.9855,0.78285 0.2002,-0.0186 0.80028,0.75637 1.29765,0.82559 0.81879,0.22697 0.81901,0.7316 1.12183,0.52587 0.42238,-0.20896 -0.42862,-1.008 -0.82698,-1.48938 -0.6961,-0.60001 -1.55724,-1.06109 -2.26468,-1.65898 0.45327,0.17624 1.43155,1.16179 0.50882,0.2919 -0.69018,-0.52463 -1.57959,-0.97712 -2.22437,-1.6072 -0.88588,-0.72643 -0.31675,0.3214 -0.80648,0.0213 -0.55393,0.0764 -1.10786,0.1527 -1.6618,0.22904 -0.0944,-0.0731 -0.2404,-0.15823 -0.31921,-0.22912 z"
       id="FL"
       inkscape:connector-curvature="0" />
    <path
       style="fill:#ffffff;fill-rule:evenodd;stroke:#000000;stroke-width:0.25681284;stroke-linejoin:round"
       d="m 143.28421,125.07382 c -0.12177,-0.21789 -0.12739,-0.0407 0,0 z m -0.10524,-0.19518 c -0.12165,-0.18686 -0.11169,-0.042 0,0 z m -4.07782,-2.67302 c -0.48454,0.13213 -1.02635,0.24219 -1.50774,0.35641 0.88568,0.76708 1.67498,1.59818 2.67221,2.29116 0.0561,0.35449 0.63108,0.84001 1.06543,1.19238 0.59093,0.33891 0.95215,-0.0655 1.45314,-0.0177 0.81627,0.0602 0.43047,-0.17262 0.88383,-0.32816 -0.22304,-0.29476 -0.56822,-0.81625 -0.71068,-1.06714 0.0526,-0.28742 -0.97896,-0.75021 -1.38738,-0.98906 -0.78113,-0.31424 -1.57408,-0.91205 -2.31878,-1.11966 -0.16459,-0.11472 -0.0907,-0.21322 -0.15003,-0.31823 z"
       id="GA"
       inkscape:connector-curvature="0" />
    <path
       style="fill:#ffffff;fill-rule:evenodd;stroke:#000000;stroke-width:0.25681284;stroke-linejoin:round"
       d="m 139.20723,127.11465 c -0.048,-0.023 0.005,0.0417 0,0 z m 0.35663,-0.0509 c -0.1578,-0.0321 0.001,0.0332 0,0 z m -0.46126,0.0424 c -0.0461,6.6e-4 0.0472,0.0515 0,0 z m 0.37412,-0.034 c -0.26278,-0.005 -0.16787,0.007 0,0 z m -4.92868,-4.04348 c 0.14381,0.41558 0.18695,0.70846 0.47586,1.12456 0.19521,0.43705 0.57508,0.83851 1.09159,1.22707 0.21486,0.33576 0.25576,1.05476 0.66422,1.2709 0.42949,0.0639 1.03925,-0.3582 1.35415,0.0147 0.73911,0.81327 0.6442,0.18368 1.25628,0.29892 -0.032,-0.30602 -0.85977,-0.93982 -1.18456,-1.36495 -0.70563,-0.89815 -1.42119,-1.79618 -2.13411,-2.69424 -0.50339,-0.149 -0.83558,0.10448 -1.28461,0.0936 -0.0793,0.0101 -0.15546,0.0239 -0.23881,0.0294 z"
       id="MS"
       inkscape:connector-curvature="0" />
    <path
       style="fill:#ffffff;fill-rule:evenodd;stroke:#000000;stroke-width:0.25681284;stroke-linejoin:round"
       d="m 139.10115,122.20562 c 0.0238,0.47362 1.0092,0.53834 1.49833,0.95474 0.7013,0.3621 1.36662,0.62381 2.02831,1.11071 0.55253,0.31024 -0.0507,-0.30896 0.22846,-0.20245 -0.0772,-0.0986 0.20262,-0.5031 0.12235,-0.78106 -0.44508,-0.50436 0.0743,-0.9241 -0.90208,-1.13228 -0.71418,-0.43049 -1.03647,-0.23146 -1.56049,-0.27212 -0.67319,-0.2746 -0.81868,0.21216 -1.2648,0.26517 -0.0557,0.0129 -0.0877,0.0516 -0.15008,0.0573 z"
       id="SC"
       inkscape:connector-curvature="0" />
    <path
       style="fill:#ffffff;fill-rule:evenodd;stroke:#000000;stroke-width:0.25681284;stroke-linejoin:round"
       d="m 128.44434,116.42255 c 0.47925,0.18492 1.12643,0.73222 0.79809,0.94192 -0.30472,0.10302 0.48335,0.76265 0.38416,1.00132 0.27252,0.58223 1.16905,0.76678 1.64807,1.22882 0.54765,-0.14329 0.57595,0.84115 1.35506,0.86079 0.35669,0.0775 1.25711,1.09218 1.00854,0.49857 0.63318,0.22094 0.23468,-0.34906 0.11185,-0.61098 -0.37104,-0.48645 -0.31238,-0.86556 -0.89199,-1.35398 -0.70865,-0.77475 -1.38552,-1.62422 -2.22993,-2.35441 -0.57071,-0.6335 -0.8793,-0.35821 -1.33487,-0.31849 -0.28294,0.0355 -0.56603,0.071 -0.84898,0.10644 z"
       id="IL"
       inkscape:connector-curvature="0" />
    <path
       style="fill:#ffffff;fill-rule:evenodd;stroke:#000000;stroke-width:0.25681284;stroke-linejoin:round"
       d="m 132.41726,116.51165 c -0.47091,0.11762 -1.0569,0.14354 -1.36623,0.39034 -0.13314,0.0931 0.87485,0.9814 1.1801,1.38094 0.424,0.51987 0.98419,1.00239 1.22039,1.47373 0.0771,0.53587 0.33764,0.61379 0.70805,0.43402 0.26523,-0.0619 0.6161,-0.23441 0.60129,-0.4931 -0.26319,-0.47661 0.33853,-0.40272 -0.18131,-0.92023 -0.72024,-0.75529 -1.42921,-1.51318 -2.16229,-2.2657 z"
       id="IN"
       inkscape:connector-curvature="0" />
    <path
       style="fill:#ffffff;fill-rule:evenodd;stroke:#000000;stroke-width:0.25681284;stroke-linejoin:round"
       d="m 133.89232,121.62434 c -0.1548,-0.14721 -0.0173,0.10667 0,0 z m 0.75198,-2.77486 c 0.37328,0.45684 -0.15485,0.41582 0.11773,0.91647 -0.15159,0.10458 -0.25184,0.50905 -0.70666,0.39459 -0.47924,0.03 -0.15076,0.48748 -0.0385,0.76497 -0.43005,0.003 -0.24457,0.25761 -0.0572,0.67169 0.14448,0.0126 1.00997,0.002 0.77729,-0.26814 0.90451,-0.14347 1.91519,-0.21482 2.68373,-0.48116 0.33235,-0.18249 0.1148,-0.71387 0.17747,-1.03527 -0.51711,-0.0117 -0.96061,-0.68109 -1.47189,-0.85874 -0.17643,0.13418 -0.63338,0.21038 -1.23861,-0.14703 -0.0883,-0.0244 -0.23733,-0.0184 -0.24338,0.0426 z"
       id="KY"
       inkscape:connector-curvature="0" />
    <path
       style="fill:#ffffff;fill-rule:evenodd;stroke:#000000;stroke-width:0.25681284;stroke-linejoin:round"
       d="m 143.05562,122.28199 c -0.12596,9.9e-4 0.1199,0.13671 0,0 z m -0.15772,-0.24609 c -0.043,0.0172 0.14253,0.15833 0,0 z m -0.0519,-0.39459 c -0.0806,0.12206 -8.1e-4,0.12146 0,0 z m 0.34137,-0.2673 c -0.0637,-0.0437 -0.19438,-0.0134 0,0 z m -0.1349,-0.0255 c -0.11888,-0.009 -0.0916,0.0894 0,0 z m 0.16849,0.0467 c -0.0961,-0.36527 -0.20384,-0.35442 0,0 z m -0.13094,-0.40307 c 0.091,-0.0753 -0.14308,-0.1384 0,0 z m 0.10001,-0.33095 c -0.58532,-0.55595 -0.45879,-0.54262 0,0 z m -1.35659,-1.07345 c 0.44147,0.39595 1.27127,0.8272 0.23405,0.15991 -0.078,-0.0533 -0.15603,-0.10661 -0.23405,-0.15991 z m -0.0569,0.0255 c -0.0755,0.0346 0.093,-0.0191 0,0 z m -3.18781,0.96738 c 0.43807,0.49975 -0.12753,0.54345 -0.0915,0.8613 -0.0258,0.33468 -0.50081,0.4393 -0.16849,0.88866 0.33959,0.0648 0.73897,-0.12945 1.03315,-0.22845 0.40571,-0.0879 0.58458,-0.47626 1.24254,-0.2159 0.49358,-0.0524 0.95706,-0.0445 1.68454,0.35886 0.77398,0.43142 0.75093,-0.10474 0.50472,-0.52312 0.0782,-0.2008 0.43715,-0.71768 0.1128,-0.59232 -0.14184,0.15123 -0.42478,-0.52301 -0.72425,-0.43755 0.44051,0.0757 0.87913,-0.17579 0.2033,-0.60364 0.38407,0.46556 -0.46888,-0.1182 -0.4561,0.13943 0.16724,-0.26247 0.27974,-0.58717 -0.38358,-0.53134 -0.93859,0.33804 -1.8582,0.7159 -2.95717,0.88407 z"
       id="NC"
       inkscape:connector-curvature="0" />
    <path
       style="fill:#ffffff;fill-rule:evenodd;stroke:#000000;stroke-width:0.25681284;stroke-linejoin:round"
       d="m 135.61426,116.79168 c -0.37643,-0.25679 -1.06287,-1.31159 -1.18894,-0.92367 -0.15027,0.26494 -0.1044,0.80545 -0.77735,0.54467 -0.54132,-0.12684 -0.80133,0.0799 -1.17494,0.15412 0.72,0.71955 1.53577,1.66329 2.17891,2.24874 0.42627,-0.021 1.05111,0.41946 1.34952,0.23336 0.28031,-0.0554 0.86554,0.18835 0.3784,-0.49978 -0.17756,-0.3249 0.19662,-0.47535 -0.10693,-0.90651 -0.22764,-0.28183 -0.41356,-0.58175 -0.65866,-0.85093 z"
       id="OH"
       inkscape:connector-curvature="0" />
    <path
       style="fill:#ffffff;fill-rule:evenodd;stroke:#000000;stroke-width:0.25681284;stroke-linejoin:round"
       d="m 137.41021,120.89456 c -0.88886,0.17783 -1.79834,0.33652 -2.75742,0.43702 0.40125,0.40361 -0.6574,0.12899 -0.72504,0.34368 -0.008,0.0332 0.25562,0.60683 0.44454,0.84447 0.11734,0.48472 0.24153,0.60339 0.72634,0.43666 1.10669,-0.16845 2.22431,-0.32646 3.27539,-0.56834 -0.38588,-0.45144 0.039,-0.56448 0.0953,-0.86219 -0.0591,-0.36242 0.53512,-0.38821 0.15646,-0.87079 -0.30999,-0.0939 -0.76394,0.18124 -1.14168,0.21404 l -0.0668,0.0127 -0.007,0.0127 z"
       id="TN"
       inkscape:connector-curvature="0" />
    <path
       style="fill:#ffffff;fill-rule:evenodd;stroke:#000000;stroke-width:0.25681284;stroke-linejoin:round"
       d="m 141.78278,119.60472 c 0.064,0.0165 -0.0412,-0.0657 0,0 z m -0.51529,-0.4752 c 0.012,0.0507 0.0568,-0.006 0,0 z m -0.039,-0.14851 -0.0307,-0.0339 z m 0.0141,0.0509 c 0.0497,0.0337 0.0522,0.16889 0,0 z m -0.0476,-0.11032 c -0.0213,-0.0672 -0.0205,0.005 0,0 z m -0.0637,-0.11455 c -0.0481,-0.11637 0.0837,0.15539 0,0 z m -0.0453,-0.0636 c -0.0298,-0.15333 -0.1203,-0.078 0,0 z m -0.25069,-0.42004 c -0.0351,-0.0879 -0.0215,-0.0136 0,0 z m -0.0931,-0.0976 c -0.353,-0.008 0.71341,1.23649 0.28451,0.57279 -0.0865,-0.18927 -0.16451,-0.3762 -0.28451,-0.57279 z m 0.0588,-0.0339 c 0.0146,0.11142 0.16324,0.2257 0,0 z m -3.18658,1.62503 c -0.0832,0.35429 0.11972,0.85223 -0.19692,1.06496 1.51077,-0.34718 3.01074,-0.70538 4.32232,-1.25589 0.047,-0.0393 0.0457,-0.20687 -0.47928,-0.3096 -0.27305,0.10516 -1.35576,-0.28968 -0.35707,-0.10044 0.46471,0.14813 -0.22763,-0.50706 -0.71205,-0.57521 -1.02124,-0.4122 1.163,0.4177 -0.005,-0.20467 -0.55753,-0.0556 -0.86361,-0.18128 -1.12523,-0.63877 -0.67306,-0.38014 -0.57207,-0.073 -0.92376,-0.16962 -0.28235,-0.0601 0.20251,0.71179 0.18229,0.98426 -0.70451,-0.24891 0.27462,0.77822 0.24296,1.06072 -0.36591,0.009 -0.2759,0.69755 -0.94866,0.14426 z"
       id="VA"
       inkscape:connector-curvature="0" />
    <path
       style="fill:#ffffff;fill-rule:evenodd;stroke:#000000;stroke-width:0.25681284;stroke-linejoin:round"
       d="m 128.23228,113.65193 c -0.0237,0.35269 0.39004,0.66279 0,0 z m -3.22323,-0.99708 c 0.0289,-0.12048 -0.0531,-0.0904 0,0 z m -0.0111,-0.14001 c -0.0787,-0.0847 -0.0952,0.0753 0,0 z m -0.74379,0.2376 c 0.44819,0.45776 0.15853,0.86905 0.73981,1.23892 0.23399,0.62627 0.83875,0.71774 1.46484,1.03182 0.59104,0.19982 1.00111,0.6605 1.37956,1.08115 0.80778,0.58958 1.18814,0.14154 1.7644,0.16971 0.86247,0.10443 0.14916,-0.41899 -0.27825,-0.9075 -0.33082,-0.44519 -0.54947,-0.89444 -0.93281,-1.29777 -0.17074,0.52982 -0.0378,0.0355 -0.51929,-0.31759 -0.44724,-0.56891 -1.01942,-0.58648 -1.57114,-0.68858 -0.54398,-0.2533 -1.24217,-0.0796 -1.45246,-0.54777 -0.12051,0.15068 -0.32375,0.23492 -0.59466,0.23761 z m 0.65996,-0.22488 c -0.0309,-0.0707 -0.0988,0.008 0,0 z m -0.17656,-0.0297 c 0.037,-0.0132 -0.0864,-0.0729 0,0 z m 0.25486,-0.0721 c -0.12395,-0.17908 -0.0174,0.0736 0,0 z"
       id="WI"
       inkscape:connector-curvature="0" />
    <path
       style="fill:#ffffff;fill-rule:evenodd;stroke:#000000;stroke-width:0.25681284;stroke-linejoin:round"
       d="m 137.01024,117.53843 c -0.33796,0.38582 -0.83047,-0.14588 -1.31044,-0.65341 0.33884,0.45238 0.97933,1.1424 0.60701,1.28697 0.006,0.32665 0.31558,0.71435 0.19449,0.96601 0.37757,0.47868 0.96158,0.60432 1.37809,0.84408 0.37208,0.0535 0.79113,-0.22377 0.54228,-0.60379 -0.37228,-0.59565 -0.27726,-0.75346 -0.21161,-1.01674 0.0396,-0.40787 -0.41559,-0.91734 0.19042,-0.71715 -0.57429,-0.65191 -0.69432,-0.10158 -0.88379,0.0396 0.27326,0.81891 -0.24547,-0.20164 -0.50645,-0.14552 z"
       id="WV"
       inkscape:connector-curvature="0" />
    <path
       style="fill:#ffffff;fill-rule:evenodd;stroke:#000000;stroke-width:0.25681284;stroke-linejoin:round"
       d="m 138.97029,116.83835 c 0.51041,0.36601 1.20058,1.34555 1.51637,0.95041 -0.25446,-0.4187 -1.23303,-0.60036 -1.41574,-1.09467 -0.12609,-0.0329 -0.16505,0.0459 -0.10063,0.14426 z"
       id="DE"
       inkscape:connector-curvature="0" />
    <path
       style="fill:#ffffff;fill-rule:evenodd;stroke:#000000;stroke-width:0.25681284;stroke-linejoin:round"
       d="m 139.01507,117.77603 c 0.33553,0.20546 0.0875,-0.14865 0,0 z"
       id="DC"
       inkscape:connector-curvature="0" />
    <path
       style="fill:#ffffff;fill-rule:evenodd;stroke:#000000;stroke-width:0.25681284;stroke-linejoin:round"
       d="m 140.79187,118.17486 c -0.28288,-0.42161 -0.0292,-0.0599 0,0 z m -0.28625,-0.39459 c 0.005,0.0219 0.15876,0.18711 0,0 z m -3.42668,-0.26306 c 0.58065,0.80207 0.48833,-0.004 0.65872,-0.15001 0.19478,-0.20817 0.95396,0.42746 1.26799,0.37489 0.21325,0.24457 0.6207,0.6499 1.17668,0.63648 -0.6497,-0.46335 -0.51323,-0.28272 -0.44991,-0.34372 -0.44946,-0.29454 -1.02787,-1.35975 -0.51483,-0.64612 0.29831,0.0967 0.53532,0.46798 0.76176,0.69979 0.12788,-0.16688 0.73905,0.46488 0.71601,0.0474 -0.16506,-0.65109 -0.59124,0.0525 -1.07074,-0.71444 -0.62189,-0.76682 -0.94659,-0.49725 -1.3305,-0.33034 -0.40471,0.14233 -0.80555,0.28844 -1.21519,0.42602 z"
       id="MD"
       inkscape:connector-curvature="0" />
    <path
       style="fill:#ffffff;fill-rule:evenodd;stroke:#000000;stroke-width:0.25681284;stroke-linejoin:round"
       d="m 139.96702,116.82138 c -0.11709,-0.14399 -0.0379,0.0288 0,0 z m -0.0797,-0.15699 c -0.0958,-0.18228 -0.10741,-0.0981 0,0 z m -1.18999,-1.30257 c -0.80562,-0.33335 -0.8201,0.0829 -0.2375,0.59689 0.79432,0.2593 0.41752,0.88471 1.05503,1.07901 0.75617,0.37262 0.62456,0.17751 0.28385,-0.33939 -0.095,-0.57715 -0.79729,-0.74016 -0.99421,-1.18076 l -0.0588,-0.0855 -0.0484,-0.0703 z"
       id="NJ"
       inkscape:connector-curvature="0" />
    <path
       style="fill:#ffffff;fill-rule:evenodd;stroke:#000000;stroke-width:0.25681284;stroke-linejoin:round"
       d="m 138.95237,115.7055 c 0.008,0.13477 0.009,0.11681 0,0 z m 0.42603,-0.20791 c 0.10503,-0.27609 0.0667,-0.22657 0,0 z m -0.45573,0.13153 c -0.11521,-0.17274 -0.14441,-0.14559 0,0 z m 0.45952,-0.67886 c -0.14022,-0.0915 0.006,0.12421 0,0 z m 0.0555,-0.0764 c 0.0418,0.0906 0.0349,0.0213 0,0 z m -0.11601,0.004 c 0.0391,0.38139 -0.66846,0.36669 -0.27566,0.86555 0.25459,-0.23146 0.45991,-0.50809 0.52377,-0.86979 -0.0732,0.18463 -0.24477,0.45387 -0.24811,0.004 z m -0.007,-0.1782 c -0.004,-0.096 -0.0157,0.11912 0,0 z m -4.91221,-0.15699 c -0.24599,-0.10151 0.16598,0.17661 0,0 z m 0.40283,-1.29832 c -0.0224,-0.11711 -0.0691,0.0187 0,0 z m -0.21681,-0.30549 c -0.0423,0.005 0.0525,0.13878 0,0 z m 0.0759,2.40996 c 0.61098,0.42072 0.88505,-0.11916 1.31544,-0.13403 0.42615,-0.0927 0.71535,-0.40436 1.21229,-0.37376 0.50313,0.32567 1.10602,0.47288 1.47992,0.49931 0.49623,0.40645 -0.11589,-0.43973 -0.43669,-0.64636 -0.71606,-0.67623 -1.21874,-1.42553 -2.16102,-2.01394 -0.45256,-0.56783 -1.12278,-1.11245 -1.36944,-0.66202 -0.56545,0.0749 -0.0122,0.7824 -0.0472,1.16268 0.7958,0.28274 0.46091,0.92234 0.0881,0.91005 -0.5247,-0.032 -0.79817,0.24805 -0.16924,0.69223 0.19775,0.25036 0.079,0.38237 0.0878,0.56584 z"
       id="NY"
       inkscape:connector-curvature="0" />
    <path
       style="fill:#ffffff;fill-rule:evenodd;stroke:#000000;stroke-width:0.25681284;stroke-linejoin:round"
       d="m 137.96318,115.19635 c -0.67045,-0.34183 -1.15474,-0.48413 -1.44961,-0.18491 -0.55079,0.15233 -0.96392,0.49093 -1.65043,0.47921 -0.50302,-0.31991 -0.37671,0.42165 0.19336,0.74945 0.48717,0.48254 0.97686,0.96438 1.46437,1.44683 0.84829,-0.25231 1.65443,-0.54569 2.44942,-0.84858 0.1564,-0.17184 0.15456,-0.58862 -0.49002,-0.85282 -0.27418,-0.33512 -0.45672,-0.4726 -0.51709,-0.78918 z"
       id="PA"
       inkscape:connector-curvature="0" />
    <path
       style="fill:#ffffff;fill-rule:evenodd;stroke:#000000;stroke-width:0.25681284;stroke-linejoin:round"
       d="m 138.25451,112.93488 c -0.0175,-0.003 0.0248,0.0109 0,0 z m -0.38907,-0.90374 c -0.13988,-0.13925 -0.0529,0.0109 0,0 z m -0.096,-0.0467 c -0.0106,-0.0256 -0.14167,-0.15523 0,0 z m 0.0145,-0.1782 c -0.0352,-0.0213 0.0199,0.0281 0,0 z m 0.26078,-0.21214 c -0.0701,-0.14517 -0.0877,-0.0143 0,0 z m -0.0867,0.0255 c 2.9e-4,-0.0936 -0.17504,-0.0298 0,0 z m 0.0485,-0.14001 c -0.0438,-0.0231 0.008,0.0374 0,0 z m -0.16347,0.0636 c -0.11586,-0.069 0.0323,0.1149 0,0 z m 0.11482,-0.13153 c 0.13912,0.10443 0.0116,-0.0422 0,0 z m -0.11175,0.004 c -0.0636,0.12161 0.13745,0.067 0,0 z m -0.17994,0.004 c -0.0367,0.0204 0.14827,0.14336 0,0 z m 0.14229,-0.14002 c -0.0359,-0.0801 -0.0499,-8.2e-4 0,0 z m -0.008,0.017 c -0.13059,-0.11453 -0.0317,0.0449 0,0 z m -0.16257,0.0976 c -0.0637,-0.11939 -0.0593,0.0152 0,0 z m 0.28908,-0.1485 c 0.10407,0.18649 -0.14735,-7.3e-4 0,0 z m 0.0895,-0.28428 c -0.0553,-0.0944 -0.13425,-0.006 0,0 z m -0.0338,-0.19093 c -0.0673,-0.0553 -0.0223,0.0392 0,0 z m -0.20255,-0.33094 c -0.13321,-0.0304 0.0673,0.0459 0,0 z m 0.097,0.0424 c -0.0335,-0.11243 -0.23675,-0.10856 0,0 z m -0.1211,-0.0679 c -0.0861,-0.19202 -0.11199,3.1e-4 0,0 z m -1.95241,0.66614 c 0.76677,0.5908 1.45931,1.31194 2.2938,1.79474 -0.15063,-0.38777 -0.58361,-0.85451 -0.28102,-1.07002 -0.29314,-0.50378 0.0428,-0.46667 0.0463,-0.80154 0.29726,-0.25101 -0.18975,-0.68869 -0.83298,-0.90483 -0.35702,-0.0806 -0.89429,-0.5911 -1.42047,-1.00917 -0.79714,-0.76541 -0.65015,0.12583 -1.18535,-0.22287 0.14553,0.48073 0.65377,1.03953 1.13371,1.56452 -0.0298,0.23509 0.62716,0.66303 0.24603,0.64917 z"
       id="ME"
       inkscape:connector-curvature="0" />
    <path
       style="fill:#ffffff;fill-rule:evenodd;stroke:#000000;stroke-width:0.25681284;stroke-linejoin:round"
       d="m 128.9702,113.80043 c -0.10104,-0.10893 -0.0125,0.0556 0,0 z m 0.009,-0.0764 c -0.17607,-0.19332 -0.0965,0.0309 0,0 z m -0.1955,-0.30549 c -0.14813,-0.12359 -0.0421,0.0258 0,0 z m 2.48292,3.32219 c 0.49803,-0.10087 0.99763,-0.19613 1.47442,-0.24608 0.62197,0.0378 0.35145,-0.42747 0.0679,-0.88841 0.3542,-0.1195 -0.49317,-0.76236 -0.98054,-1.17364 -0.88002,-0.65493 -0.0178,0.87897 -0.79785,0.004 0.0811,-0.32843 -0.74361,-1.32664 -1.33958,-1.28798 -0.77812,-0.39228 -0.74715,0.0224 -0.44449,0.47377 0.23115,0.40531 -0.28746,-0.22846 -0.089,0.48326 0.4523,0.50529 0.6762,1.02409 1.39394,1.45761 0.45439,0.38983 0.66632,0.84214 0.71515,1.17723 z m -2.06774,-3.82285 c -0.26454,-0.0752 0.0948,0.16065 0,0 z m -0.56176,0.11032 c -0.12001,-0.0301 0.0748,0.0526 0,0 z m 0.32575,-0.53885 c -0.0579,-0.12272 -0.22439,-0.052 0,0 z m -3.61943,0.30973 c 0.71355,0.2828 1.34024,0.27619 2.00018,0.50302 0.69058,0.66148 0.75845,0.55719 0.59903,-0.0119 0.18004,-0.12134 0.12986,-0.49292 0.69327,-0.47261 0.47194,0.0323 0.7762,-0.031 0.10489,-0.55069 -0.24012,0.31602 -0.77757,-0.31468 -1.03097,0.0165 -0.17764,0.24342 -0.38613,0.50529 -1.06117,0.0744 -0.87781,-0.34986 -0.86499,-0.10613 -1.16178,0.18244 -0.0483,0.0859 -0.0932,0.17417 -0.14345,0.25882 z m 0.75783,-0.96314 c -0.54572,0.27002 0.021,0.56938 0,0 z m -1.01132,-0.58128 c -0.33692,0.26298 0.0735,0.54438 0,0 z"
       id="MI"
       inkscape:connector-curvature="0" />
    <path
       style="fill:none;fill-rule:evenodd;stroke:#000000;stroke-width:0.26458332px;stroke-linecap:butt;stroke-linejoin:miter;stroke-opacity:1"
       d="m 137.88239,106.56219 20.28829,27.05104 H 115.38777 L 95.099481,106.56219 Z"
       id="path5451"
       inkscape:connector-curvature="0"
       sodipodi:nodetypes="ccccc" />
    <text
       transform="skewX(37.87)"
       xml:space="preserve"
       style="font-style:normal;font-variant:normal;font-weight:normal;font-stretch:normal;font-size:4.8246541px;line-height:1.25;font-family:Cambira;-inkscape-font-specification:Cambira;letter-spacing:0px;word-spacing:0px;fill:#b3b3b3;fill-opacity:1;stroke:none;stroke-width:0.26458335"
       x="-15.923695"
       y="132.2628"
       id="text5495"><tspan
         sodipodi:role="line"
         id="tspan5493"
         x="-15.923695"
         y="132.2628"
         style="font-style:normal;font-variant:normal;font-weight:normal;font-stretch:normal;font-family:Calibri;-inkscape-font-specification:Calibri;fill:#b3b3b3;fill-opacity:1;stroke-width:0.26458335">Text Input</tspan></text>
    <path
       style="fill:none;fill-rule:evenodd;stroke:#000000;stroke-width:0.26458332;stroke-linecap:butt;stroke-linejoin:miter;stroke-miterlimit:4;stroke-dasharray:none;stroke-dashoffset:0;stroke-opacity:1"
       d="m 105.55454,127.26324 4.76251,6.35 H 78.567003 l -4.762497,-6.35 z"
       id="path5453"
       inkscape:connector-curvature="0" />
    <text
       id="text6119"
       y="124.11806"
       x="9.7582512"
       style="font-style:normal;font-weight:normal;font-size:10.58333302px;line-height:1.25;font-family:sans-serif;letter-spacing:0px;word-spacing:0px;fill:#000000;fill-opacity:1;stroke:none;stroke-width:0.26458332"
       xml:space="preserve"><tspan
         style="font-size:4.93888903px;stroke-width:0.26458332"
         y="124.11806"
         x="9.7582512"
         id="tspan6117"
         sodipodi:role="line">Input Widgets</tspan></text>
    <text
       xml:space="preserve"
       style="font-style:normal;font-weight:normal;font-size:10.58333302px;line-height:1.25;font-family:sans-serif;letter-spacing:0px;word-spacing:0px;fill:#000000;fill-opacity:1;stroke:none;stroke-width:0.26458332"
       x="-3.6404135"
       y="164.09142"
       id="text6123"><tspan
         sodipodi:role="line"
         id="tspan6121"
         x="-3.6404135"
         y="164.09142"
         style="font-size:4.93888903px;stroke-width:0.26458332">Computation Graph</tspan></text>
    <text
       id="text6137"
       y="203.28098"
       x="6.0058556"
       style="font-style:normal;font-weight:normal;font-size:10.58333302px;line-height:1.25;font-family:sans-serif;letter-spacing:0px;word-spacing:0px;fill:#000000;fill-opacity:1;stroke:none;stroke-width:0.26458332"
       xml:space="preserve"><tspan
         style="font-size:4.93888903px;stroke-width:0.26458332"
         y="203.28098"
         x="6.0058556"
         id="tspan6135"
         sodipodi:role="line">Output Widgets</tspan></text>
    <flowRoot
       transform="matrix(0.08015904,0,0,0.08015904,102.61549,110.55089)"
       style="font-style:normal;font-weight:normal;font-size:40px;line-height:1.25;font-family:sans-serif;letter-spacing:0px;word-spacing:0px;fill:#000000;fill-opacity:1;stroke:none;stroke-width:3.30072999"
       id="flowRoot6167"
       xml:space="preserve"><flowRegion
         style="stroke-width:3.30072999"
         id="flowRegion6169"><rect
           style="stroke-width:3.30072999"
           y="400.14563"
           x="673.2981"
           height="216.05391"
           width="413.55469"
           id="rect6171" /></flowRegion><flowPara
         style="stroke-width:3.30072999"
         id="flowPara6173">Input dependence</flowPara><flowPara
         style="stroke-width:3.30072999"
         id="flowPara6181">(many-to-many)</flowPara><flowPara
         style="stroke-width:3.30072999"
         id="flowPara6175" /></flowRoot>    <flowRoot
       xml:space="preserve"
       id="flowRoot6193"
       style="font-style:normal;font-weight:normal;font-size:40px;line-height:1.25;font-family:sans-serif;letter-spacing:0px;word-spacing:0px;fill:#000000;fill-opacity:1;stroke:none;stroke-width:3.30072999"
       transform="matrix(0.08015904,0,0,0.08015904,102.61549,153.93872)"><flowRegion
         id="flowRegion6185"
         style="stroke-width:3.30072999"><rect
           id="rect6183"
           width="413.55469"
           height="216.05391"
           x="673.2981"
           y="400.14563"
           style="stroke-width:3.30072999" /></flowRegion><flowPara
         id="flowPara6187"
         style="stroke-width:3.30072999">Output dependence</flowPara><flowPara
         id="flowPara6189"
         style="stroke-width:3.30072999">(one-to-many)</flowPara><flowPara
         id="flowPara6191"
         style="stroke-width:3.30072999" /></flowRoot>  </g>
</svg>
